<?xml version="1.0" encoding="UTF-8"?>
<svg xmlns="http://www.w3.org/2000/svg" version="1.1" xmlns:xlink="http://www.w3.org/1999/xlink" viewBox="0 0 1920 1080">
  <defs>
    <style>
      .cls-1 {
        stroke-width: 4.76px;
      }

      .cls-1, .cls-2, .cls-3, .cls-4, .cls-5, .cls-6, .cls-7, .cls-8, .cls-9, .cls-10, .cls-11, .cls-12, .cls-13, .cls-14, .cls-15, .cls-16, .cls-17, .cls-18, .cls-19, .cls-20, .cls-21, .cls-22, .cls-23, .cls-24, .cls-25, .cls-26, .cls-27, .cls-28, .cls-29, .cls-30, .cls-31, .cls-32 {
        fill: none;
        stroke-miterlimit: 10;
      }

      .cls-1, .cls-22 {
        stroke: #00b6cd;
      }

      .cls-2 {
        stroke-width: 7.15px;
      }

      .cls-2, .cls-25 {
        stroke: #00b8b1;
      }

      .cls-3 {
        stroke-width: 7.62px;
      }

      .cls-3, .cls-24 {
        stroke: #00b8ac;
      }

      .cls-4 {
        stroke-width: 3.45px;
      }

      .cls-4, .cls-32 {
        stroke: #00b5d8;
      }

      .cls-5 {
        stroke-width: 3.02px;
      }

      .cls-5, .cls-11 {
        stroke: #00b5dd;
      }

      .cls-33, .cls-34, .cls-35, .cls-36, .cls-37, .cls-38, .cls-39 {
        stroke-width: 0px;
      }

      .cls-33, .cls-40 {
        fill: url(#Gradiente_sem_nome_20);
      }

      .cls-6 {
        stroke-width: 3.88px;
      }

      .cls-6, .cls-23 {
        stroke: #00b6d2;
      }

      .cls-41 {
        opacity: .5;
      }

      .cls-7 {
        stroke-width: 2.16px;
      }

      .cls-7, .cls-8 {
        stroke: #10b4e9;
      }

      .cls-8 {
        stroke-width: 2.38px;
      }

      .cls-34 {
        fill: url(#Gradiente_sem_nome_9-2);
      }

      .cls-34, .cls-35, .cls-36, .cls-37, .cls-38, .cls-39 {
        mix-blend-mode: screen;
      }

      .cls-42 {
        isolation: isolate;
      }

      .cls-9 {
        stroke-width: 8.58px;
      }

      .cls-9, .cls-16 {
        stroke: #00b9a0;
      }

      .cls-35 {
        fill: url(#Gradiente_sem_nome_9-3);
      }

      .cls-35, .cls-37 {
        opacity: .44;
      }

      .cls-10 {
        stroke-width: 9.05px;
      }

      .cls-10, .cls-20 {
        stroke: #00ba9a;
      }

      .cls-11 {
        stroke-width: 3.33px;
      }

      .cls-12 {
        stroke-width: 5.61px;
      }

      .cls-12, .cls-26 {
        stroke: #00b7bd;
      }

      .cls-13 {
        stroke-width: 6.67px;
      }

      .cls-13, .cls-19 {
        stroke: #00b8b6;
      }

      .cls-14 {
        stroke-width: 2.86px;
      }

      .cls-14, .cls-29 {
        stroke: #04b4e4;
      }

      .cls-15 {
        stroke-width: 8.1px;
      }

      .cls-15, .cls-18 {
        stroke: #00b9a6;
      }

      .cls-16 {
        stroke-width: 7.76px;
      }

      .cls-43 {
        opacity: .4;
      }

      .cls-44 {
        opacity: .3;
      }

      .cls-17 {
        stroke-width: 4.74px;
      }

      .cls-17, .cls-21 {
        stroke: #00b6c8;
      }

      .cls-18 {
        stroke-width: 7.33px;
      }

      .cls-19 {
        stroke-width: 6.04px;
      }

      .cls-20 {
        stroke-width: 8.19px;
      }

      .cls-21 {
        stroke-width: 5.24px;
      }

      .cls-22 {
        stroke-width: 4.31px;
      }

      .cls-23 {
        stroke-width: 4.29px;
      }

      .cls-24 {
        stroke-width: 6.9px;
      }

      .cls-36 {
        fill: url(#Gradiente_sem_nome_9-5);
      }

      .cls-25 {
        stroke-width: 6.47px;
      }

      .cls-37 {
        fill: url(#Gradiente_sem_nome_9-6);
      }

      .cls-45 {
        clip-path: url(#clippath);
      }

      .cls-26 {
        stroke-width: 6.19px;
      }

      .cls-27 {
        stroke-width: 5.72px;
      }

      .cls-27, .cls-31 {
        stroke: #00b7c2;
      }

      .cls-38 {
        fill: url(#Gradiente_sem_nome_9-4);
      }

      .cls-28 {
        stroke-width: 8.62px;
      }

      .cls-28, .cls-30 {
        stroke: #00ba95;
      }

      .cls-29 {
        stroke-width: 2.59px;
      }

      .cls-30 {
        stroke-width: 9.53px;
      }

      .cls-31 {
        stroke-width: 5.17px;
      }

      .cls-32 {
        stroke-width: 3.81px;
      }

      .cls-39 {
        fill: url(#Gradiente_sem_nome_9);
      }
    </style>
    <radialGradient id="Gradiente_sem_nome_20" data-name="Gradiente sem nome 20" cx="984.71" cy="736.05" fx="984.71" fy="736.05" r="1393.97" gradientTransform="translate(169.51 1720.76) rotate(-90) scale(1 1.11)" gradientUnits="userSpaceOnUse">
      <stop offset=".05" stop-color="#561ea2"/>
      <stop offset=".19" stop-color="#3e1482"/>
      <stop offset=".35" stop-color="#290c65"/>
      <stop offset=".52" stop-color="#1a0651"/>
      <stop offset=".68" stop-color="#110345"/>
      <stop offset=".83" stop-color="#0e0241"/>
    </radialGradient>
    <clipPath id="clippath">
      <rect class="cls-33" x="0" y="0" width="1920" height="1080"/>
    </clipPath>
    <linearGradient id="Gradiente_sem_nome_9" data-name="Gradiente sem nome 9" x1="-814.04" y1="655.8" x2="-71.78" y2="655.8" gradientTransform="translate(2668.59 1711.96) scale(2.12 -1)" gradientUnits="userSpaceOnUse">
      <stop offset=".03" stop-color="#00b99c"/>
      <stop offset="1" stop-color="#0e0241" stop-opacity="0"/>
    </linearGradient>
    <linearGradient id="Gradiente_sem_nome_9-2" data-name="Gradiente sem nome 9" x1="-891.47" y1="710.27" x2="-149.24" y2="710.27" gradientTransform="translate(2645.94 1728.28) scale(1.54 -1)" xlink:href="#Gradiente_sem_nome_9"/>
    <linearGradient id="Gradiente_sem_nome_9-3" data-name="Gradiente sem nome 9" x1="-888.9" y1="-1572.63" x2="-146.67" y2="-1572.63" gradientTransform="translate(2418.57 517.77) scale(1.54 -.18)" xlink:href="#Gradiente_sem_nome_9"/>
    <linearGradient id="Gradiente_sem_nome_9-4" data-name="Gradiente sem nome 9" x1="-582.75" y1="251.52" x2="159.51" y2="251.52" gradientTransform="translate(579.84 -144.18) scale(2.12 1)" xlink:href="#Gradiente_sem_nome_9"/>
    <linearGradient id="Gradiente_sem_nome_9-5" data-name="Gradiente sem nome 9" x1="-573.07" y1="306" x2="169.16" y2="306" gradientTransform="translate(480.15 -313.85) scale(1.54 1)" xlink:href="#Gradiente_sem_nome_9"/>
    <linearGradient id="Gradiente_sem_nome_9-6" data-name="Gradiente sem nome 9" x1="-570.51" y1="-3823.47" x2="171.72" y2="-3823.47" gradientTransform="translate(693.99 902.26) scale(1.54 .18)" xlink:href="#Gradiente_sem_nome_9"/>
  </defs>
  <g class="cls-42">
    <g id="Layer_1" data-name="Layer 1">
      <g>
        <rect class="cls-40" x="0" y="0" width="1920" height="1080"/>
        <g class="cls-45">
          <g class="cls-41">
            <g>
              <rect class="cls-39" x="940.03" y="852.6" width="1576.14" height="407.15" transform="translate(3696.88 581.05) rotate(135)"/>
              <rect class="cls-34" x="1270.86" y="814.44" width="1144.88" height="407.15" transform="translate(3866.54 434.45) rotate(135)"/>
              <rect class="cls-35" x="1047.46" y="763.65" width="1144.88" height="73.15" transform="translate(3331.17 220.63) rotate(135)"/>
            </g>
            <g>
              <rect class="cls-38" x="-657.6" y="-96.24" width="1576.14" height="407.15" transform="translate(298.63 90.99) rotate(135)"/>
              <rect class="cls-36" x="-403.81" y="-211.43" width="1144.88" height="407.15" transform="translate(282.31 -132.64) rotate(135)"/>
              <rect class="cls-37" x="-186.02" y="178.97" width="1144.88" height="73.15" transform="translate(812.07 94.72) rotate(135)"/>
            </g>
          </g>
          <g class="cls-43">
            <g>
              <path class="cls-30" d="M1482.66,1122.66c-192.72-146.89,251.39-98.62,149.34-245.12-199.64-286.58,104.59,16.26,228.98-242.23,76.78-159.55,87.29,299.16,321.88,376.24,234.6,77.08-170.09,549.5-700.2,111.11Z"/>
              <path class="cls-10" d="M1449.41,1132.94c-208.39-165.45,277.07-108.7,164.59-270.17-220.04-315.86,115.27,17.92,252.38-266.97,84.63-175.85,96.21,329.73,354.77,414.68,258.56,84.96-175.72,595.66-771.74,122.46Z"/>
              <path class="cls-9" d="M1416.17,1143.23c-227.71-180.79,302.76-118.78,179.85-295.21-240.43-345.14,125.96,19.59,275.77-291.72,92.47-192.15,105.12,360.29,387.66,453.12,282.53,92.83-192.01,650.88-843.28,133.81Z"/>
              <path class="cls-15" d="M1382.92,1153.52c-247.03-196.12,328.44-128.85,195.11-320.25-260.83-374.42,136.64,21.25,299.17-316.47,100.32-208.45,114.04,390.85,420.54,491.56,306.5,100.71-208.29,706.09-914.81,145.16Z"/>
              <path class="cls-3" d="M1349.68,1163.8c-266.35-211.46,354.12-138.93,210.36-345.3-281.23-403.7,147.33,22.91,322.56-341.22,108.16-224.75,122.96,421.42,453.43,530,330.47,108.58-224.58,761.31-986.35,156.51Z"/>
              <path class="cls-2" d="M1316.43,1174.09c-285.66-226.8,379.81-149.01,225.62-370.34-301.62-432.98,158.01,24.57,345.95-365.96,116.01-241.05,131.88,451.98,486.31,568.44,354.44,116.46-240.87,816.52-1057.89,167.86Z"/>
              <path class="cls-13" d="M1283.19,1184.37c-304.98-242.13,405.49-159.08,240.88-395.38-322.02-462.26,168.7,26.23,369.35-390.71,123.85-257.35,140.8,482.55,519.2,606.88,378.4,124.33-257.16,871.74-1129.43,179.22Z"/>
              <path class="cls-26" d="M1249.94,1194.66c-324.3-257.47,431.18-169.16,256.14-420.43-342.42-491.54,179.38,27.89,392.74-415.46,131.7-273.66,149.71,513.11,552.08,645.32,402.37,132.21-273.45,926.95-1200.96,190.57Z"/>
              <path class="cls-27" d="M1216.7,1204.95c-343.62-272.81,456.86-179.23,271.39-445.47-362.81-520.81,190.07,29.56,416.14-440.21,139.54-289.96,158.63,543.68,584.97,683.76,426.34,140.08-289.74,982.17-1272.5,201.92Z"/>
              <path class="cls-21" d="M1183.45,1215.23c-362.93-288.14,482.54-189.31,286.65-470.51-383.21-550.09,200.75,31.22,439.53-464.95,147.38-306.26,167.55,574.24,617.86,722.2,450.31,147.96-306.02,1037.38-1344.04,213.27Z"/>
              <path class="cls-1" d="M1150.21,1225.52c-382.25-303.48,508.23-199.39,301.91-495.56-403.6-579.37,211.44,32.88,462.93-489.7,155.23-322.56,176.47,604.81,650.74,760.64,474.27,155.83-322.31,1092.6-1415.58,224.62Z"/>
              <path class="cls-23" d="M1116.96,1235.8c-401.57-318.82,533.91-209.46,317.17-520.6-424-608.65,222.12,34.54,486.32-514.45,163.07-338.86,185.38,635.37,683.63,799.08,498.24,163.71-338.6,1147.82-1487.11,235.97Z"/>
              <path class="cls-32" d="M1083.72,1246.09c-420.88-334.15,559.59-219.54,332.42-545.64-444.4-637.93,232.81,36.2,509.72-539.2,170.92-355.16,194.3,665.93,716.51,837.52,522.21,171.58-354.89,1203.03-1558.65,247.33Z"/>
              <path class="cls-11" d="M1050.47,1256.37c-440.2-349.49,585.28-229.62,347.68-570.69-464.79-667.21,243.49,37.86,533.11-563.94,178.76-371.46,203.22,696.5,749.4,875.95,546.18,179.46-371.18,1258.25-1630.19,258.68Z"/>
              <path class="cls-14" d="M1017.23,1266.66c-459.52-364.83,610.96-239.69,362.94-595.73-485.19-696.49,254.18,39.52,556.51-588.69,186.61-387.76,212.14,727.06,782.29,914.39,570.15,187.33-387.47,1313.46-1701.73,270.03Z"/>
              <path class="cls-8" d="M983.98,1276.95c-488.07-371.99,636.65-249.77,378.19-620.77-505.59-725.77,264.86,41.19,579.9-613.44,194.45-404.06,221.06,757.63,815.17,952.83,594.11,195.21-430.74,1391.6-1773.26,281.38Z"/>
            </g>
          </g>
          <g class="cls-44">
            <g>
              <path class="cls-28" d="M-60.76,545.19c-219.98,28.98,98.95-221.33-62.04-249.44-314.94-54.98,78.28-55.85-8.58-297.97-53.61-149.44,250.32,133.98,452.2,34.37S566.57,487.19-60.76,545.19Z"/>
              <path class="cls-20" d="M-75.64,572.72c-242.15,27.15,109.06-243.94-68.38-274.92-347.12-60.6,86.28-61.56-9.45-328.41C-212.56-195.32,122.42,117.06,344.93,7.28c222.51-109.78,272.01,487.78-420.56,565.44Z"/>
              <path class="cls-16" d="M-90.51,600.25c-264.6,29.67,119.17-266.56-74.72-300.4-379.3-66.21,94.27-67.26-10.33-358.85C-240.12-238.99,125.91,102.35,369.04-17.61c243.14-119.96,297.22,533-459.55,617.86Z"/>
              <path class="cls-18" d="M-105.38,627.77c-287.05,32.19,129.28-289.17-81.06-325.89-411.47-71.83,102.27-72.97-11.21-389.3-70.04-195.25,327.04,175.04,590.8,44.91,263.76-130.13,322.44,578.21-498.53,670.27Z"/>
              <path class="cls-24" d="M-120.25,655.3c-309.49,34.71,139.39-311.78-87.4-351.37-443.65-77.45,110.27-78.67-12.08-419.74-75.52-210.52,352.61,188.73,637,48.42C701.65-207.7,764.92,556.04-120.25,655.3Z"/>
              <path class="cls-25" d="M-135.12,682.83c-331.94,37.22,149.5-334.39-93.74-376.86-475.82-83.06,118.26-84.38-12.96-450.18-81-225.79,378.19,202.42,683.2,51.93,305.01-150.49,372.87,668.64-576.5,775.1Z"/>
              <path class="cls-19" d="M-149.99,710.35c-354.39,39.74,159.61-357.01-100.08-402.34-508-88.68,126.26-90.09-13.84-480.62-86.47-241.05,403.76,216.11,729.4,55.45,325.64-160.66,398.08,713.86-615.49,827.52Z"/>
              <path class="cls-12" d="M-164.87,737.88c-376.83,42.26,169.72-379.62-106.42-427.82-540.18-94.3,134.26-95.79-14.71-511.07C-377.94-457.33,143.34,28.79,489.61-142.05c346.26-170.84,423.3,759.07-654.47,879.93Z"/>
              <path class="cls-31" d="M-179.74,765.41C-579.02,810.18.09,363.18-292.49,312.1c-572.35-99.91,142.26-101.5-15.59-541.51C-405.51-501,146.83,14.08,513.72-166.94c366.89-181.01,448.51,804.29-693.46,932.35Z"/>
              <path class="cls-17" d="M-194.61,792.94c-421.73,47.29,189.94-424.85-119.09-478.79-604.53-105.53,150.25-107.2-16.46-571.95C-433.07-544.67,150.32-.64,537.83-191.83c387.52-191.19,473.72,849.5-732.44,984.76Z"/>
              <path class="cls-22" d="M-209.48,820.46c-444.17,49.81,200.05-447.46-125.43-504.28-636.71-111.15,158.25-112.91-17.34-602.39C-460.64-588.34,153.8-15.35,561.95-216.71c408.14-201.37,498.94,894.72-771.43,1037.18Z"/>
              <path class="cls-6" d="M-224.35,847.99c-466.62,52.33,210.16-470.07-131.77-529.76-668.88-116.77,166.25-118.62-18.22-632.84C-488.2-632,157.29-30.06,586.06-241.6c428.77-211.54,524.15,939.94-810.41,1089.59Z"/>
              <path class="cls-4" d="M-239.22,875.52c-489.06,54.84,220.27-492.68-138.11-555.24-701.06-122.38,174.25-124.32-19.09-663.28-119.34-332.66,557.2,298.24,1006.6,76.52,449.39-221.72,549.37,985.15-849.4,1142.01Z"/>
              <path class="cls-5" d="M-254.1,903.04c-511.51,57.36,230.38-515.3-144.45-580.73-733.24-128,182.24-130.03-19.97-693.72-124.81-347.93,582.78,311.93,1052.8,80.03,470.02-231.9,574.58,1030.37-888.38,1194.42Z"/>
              <path class="cls-29" d="M-268.97,930.57c-533.96,59.88,240.49-537.91-150.79-606.21-765.41-133.62,190.24-135.73-20.85-724.16-130.29-363.2,608.35,325.61,1099,83.54,490.64-242.07,599.8,1075.58-927.36,1246.83Z"/>
              <path class="cls-7" d="M-283.84,958.1c-557.09,73.4,250.6-560.52-157.13-631.7-797.59-139.23,198.24-141.44-21.72-754.61-135.77-378.47,633.93,339.3,1145.2,87.05,511.27-252.25,622.38,1152.36-966.35,1299.25Z"/>
            </g>
          </g>
        </g>
      </g>
    </g>
  </g>
</svg>