<?xml version="1.0" encoding="UTF-8"?>
<svg xmlns="http://www.w3.org/2000/svg" xmlns:xlink="http://www.w3.org/1999/xlink" viewBox="0 0 1920 960">
  <defs>
    <style>
      .cls-1 {
        stroke-width: .92px;
      }

      .cls-1, .cls-2, .cls-3, .cls-4, .cls-5, .cls-6, .cls-7, .cls-8, .cls-9, .cls-10, .cls-11, .cls-12, .cls-13, .cls-14, .cls-15, .cls-16, .cls-17, .cls-18, .cls-19, .cls-20, .cls-21, .cls-22, .cls-23, .cls-24, .cls-25, .cls-26, .cls-27, .cls-28, .cls-29, .cls-30, .cls-31, .cls-32, .cls-33, .cls-34, .cls-35, .cls-36, .cls-37, .cls-38, .cls-39, .cls-40, .cls-41, .cls-42, .cls-43, .cls-44, .cls-45, .cls-46, .cls-47, .cls-48, .cls-49, .cls-50, .cls-51, .cls-52, .cls-53, .cls-54, .cls-55, .cls-56, .cls-57, .cls-58, .cls-59, .cls-60, .cls-61, .cls-62, .cls-63, .cls-64, .cls-65, .cls-66, .cls-67, .cls-68, .cls-69, .cls-70, .cls-71, .cls-72, .cls-73, .cls-74, .cls-75, .cls-76, .cls-77, .cls-78, .cls-79, .cls-80, .cls-81, .cls-82 {
        fill: none;
      }

      .cls-1, .cls-2, .cls-3, .cls-4, .cls-5, .cls-6, .cls-7, .cls-8, .cls-9, .cls-10, .cls-11, .cls-13, .cls-14, .cls-15, .cls-16, .cls-17, .cls-18, .cls-19, .cls-20, .cls-21, .cls-22, .cls-23, .cls-24, .cls-25, .cls-26, .cls-27, .cls-28, .cls-29, .cls-30, .cls-31, .cls-33, .cls-34, .cls-35, .cls-36, .cls-37, .cls-38, .cls-39, .cls-40, .cls-41, .cls-42, .cls-43, .cls-44, .cls-45, .cls-46, .cls-47, .cls-48, .cls-49, .cls-50, .cls-51, .cls-52, .cls-53, .cls-54, .cls-55, .cls-56, .cls-57, .cls-58, .cls-59, .cls-60, .cls-61, .cls-62, .cls-63, .cls-64, .cls-65, .cls-66, .cls-67, .cls-68, .cls-69, .cls-70, .cls-71, .cls-72, .cls-73, .cls-74, .cls-75, .cls-76, .cls-77, .cls-78, .cls-79, .cls-80, .cls-81, .cls-82 {
        stroke-miterlimit: 10;
      }

      .cls-1, .cls-5, .cls-13, .cls-78 {
        stroke: #04b4e4;
      }

      .cls-83, .cls-84, .cls-85, .cls-86, .cls-87, .cls-88, .cls-89, .cls-90, .cls-91, .cls-92, .cls-93, .cls-94, .cls-95, .cls-96, .cls-97, .cls-32, .cls-98, .cls-99, .cls-100, .cls-101, .cls-102, .cls-103, .cls-104, .cls-105, .cls-106, .cls-107, .cls-108, .cls-109, .cls-110, .cls-111, .cls-112, .cls-113, .cls-114, .cls-115, .cls-116, .cls-117, .cls-118 {
        stroke-width: 0px;
      }

      .cls-83, .cls-101 {
        fill-rule: evenodd;
      }

      .cls-83, .cls-113 {
        fill: #fff;
      }

      .cls-2 {
        stroke-width: 1.85px;
      }

      .cls-2, .cls-64, .cls-75 {
        stroke: #00b7c2;
      }

      .cls-3 {
        stroke-width: 4.03px;
      }

      .cls-3, .cls-53, .cls-55 {
        stroke: #00b7bd;
      }

      .cls-84 {
        fill: url(#Gradiente_sem_nome_9-14);
      }

      .cls-4 {
        stroke: #00b99f;
        stroke-width: 2.78px;
      }

      .cls-5 {
        stroke-width: 1.7px;
      }

      .cls-6 {
        stroke-width: 2.77px;
      }

      .cls-6, .cls-65, .cls-73 {
        stroke: #00b9a0;
      }

      .cls-85 {
        fill: url(#Gradiente_sem_nome_9-11);
      }

      .cls-7 {
        stroke-width: 6.2px;
      }

      .cls-7, .cls-14, .cls-39, .cls-68, .cls-81 {
        stroke: #00ba95;
      }

      .cls-86 {
        fill: url(#Gradiente_sem_nome_9-16);
      }

      .cls-8 {
        stroke-width: .71px;
      }

      .cls-8, .cls-17, .cls-34, .cls-44, .cls-60 {
        stroke: #10b4e9;
      }

      .cls-87, .cls-119 {
        fill: url(#Gradiente_sem_nome_20);
      }

      .cls-9 {
        stroke: #00b6d4;
        stroke-width: 1.34px;
      }

      .cls-10 {
        stroke: #00b6d1;
        stroke-width: 1.32px;
      }

      .cls-11 {
        stroke: #00b6cf;
        stroke-width: 1.48px;
      }

      .cls-120 {
        opacity: .5;
      }

      .cls-12 {
        stroke: #fff;
        stroke-width: .94px;
      }

      .cls-13 {
        stroke-width: 1.86px;
      }

      .cls-14 {
        stroke-width: 2.83px;
      }

      .cls-15 {
        stroke-width: 2.55px;
      }

      .cls-15, .cls-30, .cls-58 {
        stroke: #00b6d2;
      }

      .cls-16 {
        stroke-width: 5.89px;
      }

      .cls-16, .cls-25, .cls-70, .cls-71 {
        stroke: #00ba9a;
      }

      .cls-17 {
        stroke-width: .77px;
      }

      .cls-88 {
        fill: url(#Gradiente_sem_nome_9-2);
      }

      .cls-88, .cls-89, .cls-90, .cls-92, .cls-93, .cls-94, .cls-95, .cls-97, .cls-98, .cls-121, .cls-102, .cls-103, .cls-104, .cls-108, .cls-111, .cls-112, .cls-116, .cls-117, .cls-118 {
        mix-blend-mode: screen;
      }

      .cls-18 {
        stroke: #00b8b3;
        stroke-width: 2.08px;
      }

      .cls-89 {
        fill: url(#Gradiente_sem_nome_11-6);
      }

      .cls-19 {
        stroke: #00b5d9;
        stroke-width: 1.2px;
      }

      .cls-90 {
        fill: url(#Gradiente_sem_nome_11-4);
      }

      .cls-91 {
        fill: url(#Gradiente_sem_nome_9-18);
      }

      .cls-122 {
        isolation: isolate;
      }

      .cls-92 {
        fill: url(#Gradiente_sem_nome_11-10);
      }

      .cls-93 {
        fill: url(#Gradiente_sem_nome_11);
      }

      .cls-20 {
        stroke-width: 1.92px;
      }

      .cls-20, .cls-27 {
        stroke: #00b7ba;
      }

      .cls-94 {
        fill: url(#Gradiente_sem_nome_9-3);
      }

      .cls-94, .cls-104 {
        opacity: .44;
      }

      .cls-21 {
        stroke-width: 1.77px;
      }

      .cls-21, .cls-48 {
        stroke: #00b7c0;
      }

      .cls-22 {
        stroke-width: 4.82px;
      }

      .cls-22, .cls-29, .cls-45 {
        stroke: #00b9a6;
      }

      .cls-23 {
        stroke-width: 1.69px;
      }

      .cls-23, .cls-36, .cls-46 {
        stroke: #00b6c8;
      }

      .cls-24 {
        stroke-width: 1.62px;
      }

      .cls-24, .cls-56 {
        stroke: #00b7c5;
      }

      .cls-25 {
        stroke-width: 5.39px;
      }

      .cls-26 {
        stroke: #00b5dc;
        stroke-width: 1.01px;
      }

      .cls-95 {
        fill: url(#Gradiente_sem_nome_11-11);
      }

      .cls-96 {
        fill: url(#Gradiente_sem_nome_9-13);
      }

      .cls-27 {
        stroke-width: 2.06px;
      }

      .cls-28 {
        stroke-width: 2.27px;
      }

      .cls-28, .cls-33, .cls-79 {
        stroke: #00b5d8;
      }

      .cls-97 {
        fill: url(#Gradiente_sem_nome_11-9);
      }

      .cls-29 {
        stroke-width: 2.62px;
      }

      .cls-30 {
        stroke-width: 1.38px;
      }

      .cls-31 {
        stroke-width: 4.96px;
      }

      .cls-31, .cls-38, .cls-66 {
        stroke: #00b8ac;
      }

      .cls-33 {
        stroke-width: 2.48px;
      }

      .cls-34 {
        stroke-width: 1.55px;
      }

      .cls-35 {
        stroke-width: 2.31px;
      }

      .cls-35, .cls-49, .cls-59 {
        stroke: #00b8b1;
      }

      .cls-98 {
        fill: url(#Gradiente_sem_nome_11-12);
      }

      .cls-123 {
        clip-path: url(#clippath-1);
      }

      .cls-36 {
        stroke-width: 3.41px;
      }

      .cls-37 {
        stroke-width: 1.99px;
      }

      .cls-37, .cls-61, .cls-82 {
        stroke: #00b5dd;
      }

      .cls-38 {
        stroke-width: 4.54px;
      }

      .cls-124 {
        opacity: .4;
      }

      .cls-99 {
        fill: url(#Gradiente_sem_nome_9-8);
      }

      .cls-100 {
        fill: url(#Gradiente_sem_nome_9-15);
      }

      .cls-125 {
        opacity: .3;
      }

      .cls-39 {
        stroke-width: 5.68px;
      }

      .cls-40 {
        stroke: #00ba9b;
        stroke-width: 2.68px;
      }

      .cls-101 {
        fill: url(#linear-gradient);
      }

      .cls-41 {
        stroke: #00b6ca;
        stroke-width: 1.63px;
      }

      .cls-42 {
        stroke: #00b5d7;
        stroke-width: 1.16px;
      }

      .cls-43 {
        stroke-width: 4.34px;
      }

      .cls-43, .cls-72, .cls-76 {
        stroke: #00b8b6;
      }

      .cls-102 {
        fill: url(#Gradiente_sem_nome_9-5);
      }

      .cls-44 {
        stroke-width: 1.42px;
      }

      .cls-45 {
        stroke-width: 5.27px;
      }

      .cls-46 {
        stroke-width: 3.12px;
      }

      .cls-47 {
        stroke: #00b8b4;
        stroke-width: 2.2px;
      }

      .cls-48 {
        stroke-width: 1.91px;
      }

      .cls-49 {
        stroke-width: 4.26px;
      }

      .cls-103 {
        fill: url(#Gradiente_sem_nome_11-7);
      }

      .cls-50 {
        stroke-width: 3.1px;
      }

      .cls-50, .cls-62, .cls-77 {
        stroke: #00b6cd;
      }

      .cls-51 {
        stroke: #04b4e3;
        stroke-width: .86px;
      }

      .cls-104 {
        fill: url(#Gradiente_sem_nome_9-6);
      }

      .cls-126 {
        clip-path: url(#clippath);
      }

      .cls-52 {
        stroke: #00b9a5;
        stroke-width: 2.63px;
      }

      .cls-53 {
        stroke-width: 3.69px;
      }

      .cls-54 {
        stroke: #00b9a7;
        stroke-width: 2.38px;
      }

      .cls-55 {
        stroke-width: 2px;
      }

      .cls-56 {
        stroke-width: 1.77px;
      }

      .cls-57 {
        stroke: #00b8af;
        stroke-width: 2.35px;
      }

      .cls-105 {
        fill: #bdffec;
      }

      .cls-58 {
        stroke-width: 2.79px;
      }

      .cls-59 {
        stroke-width: 4.65px;
      }

      .cls-60 {
        stroke-width: .77px;
      }

      .cls-61 {
        stroke-width: 2.17px;
      }

      .cls-62 {
        stroke-width: 2.84px;
      }

      .cls-63 {
        stroke: #00b8ad;
        stroke-width: 2.23px;
      }

      .cls-64 {
        stroke-width: 3.41px;
      }

      .cls-106 {
        fill: url(#Gradiente_sem_nome_4);
      }

      .cls-65 {
        stroke-width: 5.58px;
      }

      .cls-107 {
        fill: url(#Gradiente_sem_nome_9-17);
      }

      .cls-108 {
        fill: url(#Gradiente_sem_nome_11-5);
      }

      .cls-66 {
        stroke-width: 2.46px;
      }

      .cls-109 {
        fill: url(#Gradiente_sem_nome_9-10);
      }

      .cls-110 {
        fill: url(#Gradiente_sem_nome_9-7);
      }

      .cls-111 {
        fill: url(#Gradiente_sem_nome_11-8);
      }

      .cls-112 {
        fill: url(#Gradiente_sem_nome_9-4);
      }

      .cls-67 {
        stroke: #00b6cb;
        stroke-width: 1.47px;
      }

      .cls-68 {
        stroke-width: 3.08px;
      }

      .cls-69 {
        stroke: #00b9a1;
        stroke-width: 2.53px;
      }

      .cls-70 {
        stroke-width: 2.92px;
      }

      .cls-71 {
        stroke-width: 2.92px;
      }

      .cls-72 {
        stroke-width: 3.97px;
      }

      .cls-73 {
        stroke-width: 5.11px;
      }

      .cls-74 {
        stroke: #00b5de;
        stroke-width: 1.05px;
      }

      .cls-75 {
        stroke-width: 3.72px;
      }

      .cls-76 {
        stroke-width: 2.15px;
      }

      .cls-77 {
        stroke-width: 1.54px;
      }

      .cls-114 {
        fill: url(#Gradiente_sem_nome_9-9);
      }

      .cls-115 {
        fill: url(#Gradiente_sem_nome_9-12);
      }

      .cls-116 {
        fill: url(#Gradiente_sem_nome_11-2);
      }

      .cls-78 {
        stroke-width: .91px;
      }

      .cls-79 {
        stroke-width: 1.23px;
      }

      .cls-80 {
        stroke: #00b9aa;
        stroke-width: 2.49px;
      }

      .cls-117 {
        fill: url(#Gradiente_sem_nome_11-3);
      }

      .cls-81 {
        stroke-width: 3.06px;
      }

      .cls-82 {
        stroke-width: 1.08px;
      }

      .cls-118 {
        fill: url(#Gradiente_sem_nome_9);
      }
    </style>
    <radialGradient id="Gradiente_sem_nome_20" data-name="Gradiente sem nome 20" cx="983.5" cy="710.49" fx="983.5" fy="710.49" r="1393.97" gradientTransform="translate(196.6 1693.99) rotate(-90) scale(1 1.11)" gradientUnits="userSpaceOnUse">
      <stop offset=".05" stop-color="#561ea2"/>
      <stop offset=".19" stop-color="#3e1482"/>
      <stop offset=".35" stop-color="#290c65"/>
      <stop offset=".52" stop-color="#1a0651"/>
      <stop offset=".68" stop-color="#110345"/>
      <stop offset=".83" stop-color="#0e0241"/>
    </radialGradient>
    <clipPath id="clippath">
      <rect class="cls-87" x="-1.21" y="-25.56" width="1920" height="1080"/>
    </clipPath>
    <linearGradient id="Gradiente_sem_nome_9" data-name="Gradiente sem nome 9" x1="-802.17" y1="619.3" x2="-59.91" y2="619.3" gradientTransform="translate(2642.17 1649.9) scale(2.12 -1)" gradientUnits="userSpaceOnUse">
      <stop offset=".03" stop-color="#00b99c"/>
      <stop offset="1" stop-color="#0e0241" stop-opacity="0"/>
    </linearGradient>
    <linearGradient id="Gradiente_sem_nome_9-2" data-name="Gradiente sem nome 9" x1="-875.13" y1="673.77" x2="-132.9" y2="673.77" gradientTransform="translate(2619.52 1666.22) scale(1.54 -1)" xlink:href="#Gradiente_sem_nome_9"/>
    <linearGradient id="Gradiente_sem_nome_9-3" data-name="Gradiente sem nome 9" x1="-872.56" y1="-1501.79" x2="-130.33" y2="-1501.79" gradientTransform="translate(2392.15 504.94) scale(1.54 -.18)" xlink:href="#Gradiente_sem_nome_9"/>
    <linearGradient id="Gradiente_sem_nome_9-4" data-name="Gradiente sem nome 9" x1="-570.88" y1="168.02" x2="171.38" y2="168.02" gradientTransform="translate(553.42 -86.23) scale(2.12 1)" xlink:href="#Gradiente_sem_nome_9"/>
    <linearGradient id="Gradiente_sem_nome_9-5" data-name="Gradiente sem nome 9" x1="-556.73" y1="222.5" x2="185.5" y2="222.5" gradientTransform="translate(453.73 -255.91) scale(1.54 1)" xlink:href="#Gradiente_sem_nome_9"/>
    <linearGradient id="Gradiente_sem_nome_9-6" data-name="Gradiente sem nome 9" x1="-554.17" y1="-4014.31" x2="188.06" y2="-4014.31" gradientTransform="translate(667.57 910.98) scale(1.54 .18)" xlink:href="#Gradiente_sem_nome_9"/>
    <linearGradient id="Gradiente_sem_nome_9-7" data-name="Gradiente sem nome 9" x1="1786.4" y1="381.45" x2="2200.49" y2="381.45" gradientTransform="translate(3253.67 -552.56) rotate(135)" xlink:href="#Gradiente_sem_nome_9"/>
    <linearGradient id="Gradiente_sem_nome_11" data-name="Gradiente sem nome 11" x1="1788.99" y1="381.45" x2="2190.95" y2="381.45" gradientTransform="translate(3253.67 -552.56) rotate(135)" gradientUnits="userSpaceOnUse">
      <stop offset=".03" stop-color="#bdffec"/>
      <stop offset=".03" stop-color="rgba(186, 251, 233, .99)" stop-opacity=".99"/>
      <stop offset=".11" stop-color="rgba(146, 193, 194, .76)" stop-opacity=".76"/>
      <stop offset=".18" stop-color="rgba(111, 142, 160, .56)" stop-opacity=".56"/>
      <stop offset=".26" stop-color="rgba(81, 99, 130, .39)" stop-opacity=".39"/>
      <stop offset=".33" stop-color="rgba(57, 64, 107, .25)" stop-opacity=".25"/>
      <stop offset=".41" stop-color="rgba(38, 36, 88, .14)" stop-opacity=".14"/>
      <stop offset=".49" stop-color="rgba(24, 17, 75, .06)" stop-opacity=".06"/>
      <stop offset=".57" stop-color="rgba(16, 5, 67, .02)" stop-opacity=".02"/>
      <stop offset=".65" stop-color="#0e0241" stop-opacity="0"/>
    </linearGradient>
    <linearGradient id="Gradiente_sem_nome_9-8" data-name="Gradiente sem nome 9" x1="1803.27" y1="507.61" x2="1998.62" y2="507.61" gradientTransform="translate(3253.67 -552.56) rotate(135)" xlink:href="#Gradiente_sem_nome_9"/>
    <linearGradient id="Gradiente_sem_nome_11-2" data-name="Gradiente sem nome 11" x1="1805.86" y1="507.61" x2="1989.08" y2="507.61" xlink:href="#Gradiente_sem_nome_11"/>
    <linearGradient id="Gradiente_sem_nome_9-9" data-name="Gradiente sem nome 9" x1="2013.3" y1="330.33" x2="2155.58" y2="330.33" gradientTransform="translate(3253.67 -552.56) rotate(135)" xlink:href="#Gradiente_sem_nome_9"/>
    <linearGradient id="Gradiente_sem_nome_11-3" data-name="Gradiente sem nome 11" x1="2015.18" y1="330.33" x2="2148.63" y2="330.33" xlink:href="#Gradiente_sem_nome_11"/>
    <linearGradient id="Gradiente_sem_nome_9-10" data-name="Gradiente sem nome 9" x1="1829.8" y1="248.92" x2="1972.09" y2="248.92" gradientTransform="translate(3253.67 -552.56) rotate(135)" xlink:href="#Gradiente_sem_nome_9"/>
    <linearGradient id="Gradiente_sem_nome_11-4" data-name="Gradiente sem nome 11" x1="1831.69" y1="248.92" x2="1965.14" y2="248.92" xlink:href="#Gradiente_sem_nome_11"/>
    <linearGradient id="Gradiente_sem_nome_9-11" data-name="Gradiente sem nome 9" x1="1927.58" y1="447.03" x2="2069.87" y2="447.03" gradientTransform="translate(3253.67 -552.56) rotate(135)" xlink:href="#Gradiente_sem_nome_9"/>
    <linearGradient id="Gradiente_sem_nome_11-5" data-name="Gradiente sem nome 11" x1="1929.47" y1="447.03" x2="2062.92" y2="447.03" xlink:href="#Gradiente_sem_nome_11"/>
    <linearGradient id="Gradiente_sem_nome_9-12" data-name="Gradiente sem nome 9" x1="1872.64" y1="290.05" x2="2067.99" y2="290.05" gradientTransform="translate(3253.67 -552.56) rotate(135)" xlink:href="#Gradiente_sem_nome_9"/>
    <linearGradient id="Gradiente_sem_nome_11-6" data-name="Gradiente sem nome 11" x1="1875.23" y1="290.05" x2="2058.44" y2="290.05" xlink:href="#Gradiente_sem_nome_11"/>
    <linearGradient id="Gradiente_sem_nome_9-13" data-name="Gradiente sem nome 9" x1="2332.57" y1="1055.87" x2="2746.67" y2="1055.87" gradientTransform="translate(-2194.44 1456.61) rotate(-45)" xlink:href="#Gradiente_sem_nome_9"/>
    <linearGradient id="Gradiente_sem_nome_11-7" data-name="Gradiente sem nome 11" x1="2335.16" y1="1055.87" x2="2737.12" y2="1055.87" gradientTransform="translate(-2194.44 1456.61) rotate(-45)" xlink:href="#Gradiente_sem_nome_11"/>
    <linearGradient id="Gradiente_sem_nome_9-14" data-name="Gradiente sem nome 9" x1="2349.44" y1="1182.03" x2="2544.79" y2="1182.03" gradientTransform="translate(-2194.44 1456.61) rotate(-45)" xlink:href="#Gradiente_sem_nome_9"/>
    <linearGradient id="Gradiente_sem_nome_11-8" data-name="Gradiente sem nome 11" x1="2352.03" y1="1182.03" x2="2535.25" y2="1182.03" gradientTransform="translate(-2194.44 1456.61) rotate(-45)" xlink:href="#Gradiente_sem_nome_11"/>
    <linearGradient id="Gradiente_sem_nome_9-15" data-name="Gradiente sem nome 9" x1="2559.47" y1="1004.75" x2="2701.76" y2="1004.75" gradientTransform="translate(-2194.44 1456.61) rotate(-45)" xlink:href="#Gradiente_sem_nome_9"/>
    <linearGradient id="Gradiente_sem_nome_11-9" data-name="Gradiente sem nome 11" x1="2561.36" y1="1004.75" x2="2694.8" y2="1004.75" gradientTransform="translate(-2194.44 1456.61) rotate(-45)" xlink:href="#Gradiente_sem_nome_11"/>
    <linearGradient id="Gradiente_sem_nome_9-16" data-name="Gradiente sem nome 9" x1="2375.97" y1="923.34" x2="2518.26" y2="923.34" gradientTransform="translate(-2194.44 1456.61) rotate(-45)" xlink:href="#Gradiente_sem_nome_9"/>
    <linearGradient id="Gradiente_sem_nome_11-10" data-name="Gradiente sem nome 11" x1="2377.86" y1="923.34" x2="2511.31" y2="923.34" gradientTransform="translate(-2194.44 1456.61) rotate(-45)" xlink:href="#Gradiente_sem_nome_11"/>
    <linearGradient id="Gradiente_sem_nome_9-17" data-name="Gradiente sem nome 9" x1="2473.75" y1="1121.45" x2="2616.04" y2="1121.45" gradientTransform="translate(-2194.44 1456.61) rotate(-45)" xlink:href="#Gradiente_sem_nome_9"/>
    <linearGradient id="Gradiente_sem_nome_11-11" data-name="Gradiente sem nome 11" x1="2475.64" y1="1121.45" x2="2609.09" y2="1121.45" gradientTransform="translate(-2194.44 1456.61) rotate(-45)" xlink:href="#Gradiente_sem_nome_11"/>
    <linearGradient id="Gradiente_sem_nome_9-18" data-name="Gradiente sem nome 9" x1="2418.81" y1="964.47" x2="2614.16" y2="964.47" gradientTransform="translate(-2194.44 1456.61) rotate(-45)" xlink:href="#Gradiente_sem_nome_9"/>
    <linearGradient id="Gradiente_sem_nome_11-12" data-name="Gradiente sem nome 11" x1="2421.4" y1="964.47" x2="2604.62" y2="964.47" gradientTransform="translate(-2194.44 1456.61) rotate(-45)" xlink:href="#Gradiente_sem_nome_11"/>
    <radialGradient id="Gradiente_sem_nome_4" data-name="Gradiente sem nome 4" cx="947.22" cy="379.61" fx="947.22" fy="379.61" r="285.91" gradientTransform="translate(0 -38) scale(1 1.06)" gradientUnits="userSpaceOnUse">
      <stop offset="0" stop-color="#30076d"/>
      <stop offset="1" stop-color="#0e0241"/>
    </radialGradient>
    <linearGradient id="linear-gradient" x1="993.19" y1="-62.91" x2="1047.44" y2="-62.91" gradientTransform="translate(1021.59 1389.69) rotate(-90)" gradientUnits="userSpaceOnUse">
      <stop offset="0" stop-color="#00adee"/>
      <stop offset="1" stop-color="#023f87"/>
    </linearGradient>
    <clipPath id="clippath-1">
      <rect class="cls-32" x="455.58" y="482.19" width="984" height="300.62"/>
    </clipPath>
  </defs>
  <g class="cls-122">
    <g id="Layer_1" data-name="Layer 1">
      <g>
        <rect class="cls-119" x="-1.21" y="-25.56" width="1920" height="1080"/>
        <g class="cls-126">
          <g class="cls-120">
            <g>
              <rect class="cls-118" x="938.82" y="827.04" width="1576.14" height="407.15" transform="translate(3676.74 538.27) rotate(135)"/>
              <rect class="cls-88" x="1269.65" y="788.88" width="1144.88" height="407.15" transform="translate(3846.41 391.68) rotate(135)"/>
              <rect class="cls-94" x="1046.25" y="738.09" width="1144.88" height="73.15" transform="translate(3311.04 177.85) rotate(135)"/>
            </g>
            <g>
              <rect class="cls-112" x="-658.81" y="-121.79" width="1576.14" height="407.15" transform="translate(278.49 48.21) rotate(135)"/>
              <rect class="cls-102" x="-405.02" y="-236.99" width="1144.88" height="407.15" transform="translate(262.18 -175.42) rotate(135)"/>
              <rect class="cls-104" x="-187.23" y="153.41" width="1144.88" height="73.15" transform="translate(791.94 51.95) rotate(135)"/>
            </g>
          </g>
          <g class="cls-124">
            <g>
              <path class="cls-39" d="M1691.69,1010.5c-114.8-87.49,149.74-58.75,88.95-146.01-118.91-170.7,62.3,9.69,136.39-144.28,45.74-95.04,51.99,178.19,191.73,224.11,139.74,45.91-101.31,327.3-417.07,66.18Z"/>
              <path class="cls-25" d="M1671.89,1016.63c-124.13-98.55,165.04-64.75,98.04-160.92-131.06-188.14,68.66,10.68,150.33-159.02,50.41-104.74,57.3,196.4,211.32,247,154.01,50.6-104.67,354.8-459.68,72.94Z"/>
              <path class="cls-73" d="M1652.09,1022.76c-135.64-107.68,180.34-70.75,107.13-175.84-143.21-205.58,75.02,11.67,164.26-173.76,55.08-114.45,62.62,214.61,230.9,269.9,168.29,55.29-114.37,387.69-502.29,79.7Z"/>
              <path class="cls-22" d="M1632.28,1028.88c-147.14-116.82,195.63-76.75,116.21-190.76-155.36-223.02,81.39,12.66,178.2-188.5,59.75-124.16,67.93,232.81,250.49,292.8,182.56,59.98-124.07,420.58-544.9,86.47Z"/>
              <path class="cls-38" d="M1612.48,1035.01c-158.65-125.96,210.93-82.75,125.3-205.67-167.51-240.46,87.75,13.65,192.13-203.24,64.43-133.87,73.24,251.02,270.08,315.69,196.84,64.68-133.77,453.47-587.52,93.23Z"/>
              <path class="cls-49" d="M1592.68,1041.14c-170.15-135.09,226.23-88.75,134.39-220.59-179.66-257.9,94.12,14.64,206.07-217.98,69.1-143.58,78.55,269.22,289.67,338.59,211.12,69.37-143.47,486.36-630.13,99.99Z"/>
              <path class="cls-72" d="M1572.88,1047.26c-181.66-144.23,241.53-94.76,143.48-235.51-191.81-275.34,100.48,15.63,220-232.73,73.77-153.29,83.86,287.43,309.26,361.48,225.39,74.06-153.18,519.25-672.74,106.75Z"/>
              <path class="cls-53" d="M1553.07,1053.39c-193.17-153.36,256.83-100.76,152.57-250.43-203.96-292.78,106.85,16.61,233.94-247.47,78.44-163,89.18,305.63,328.85,384.38,239.67,78.75-162.88,552.13-715.35,113.51Z"/>
              <path class="cls-64" d="M1533.27,1059.52c-204.67-162.5,272.13-106.76,161.65-265.34-216.11-310.22,113.21,17.6,247.87-262.21,83.12-172.71,94.49,323.84,348.43,407.28,253.95,83.44-172.58,585.02-757.96,120.27Z"/>
              <path class="cls-46" d="M1513.47,1065.64c-216.18-171.63,287.42-112.76,170.74-280.26-228.26-327.66,119.58,18.59,261.81-276.95,87.79-182.42,99.8,342.04,368.02,430.17,268.22,88.13-182.28,617.91-800.57,127.03Z"/>
              <path class="cls-62" d="M1493.67,1071.77c-227.69-180.77,302.72-118.76,179.83-295.18-240.41-345.1,125.94,19.58,275.74-291.69,92.46-192.13,105.11,360.25,387.61,453.07,282.5,92.82-191.98,650.8-843.18,133.8Z"/>
              <path class="cls-15" d="M1473.86,1077.9c-239.19-189.9,318.02-124.77,188.92-310.09-252.55-362.54,132.31,20.57,289.67-306.43,97.13-201.84,110.42,378.45,407.2,475.97,296.78,97.51-201.69,683.69-885.79,140.56Z"/>
              <path class="cls-28" d="M1454.06,1084.02c-250.7-199.04,333.32-130.77,198.01-325.01-264.7-379.98,138.67,21.56,303.61-321.17,101.81-211.55,115.74,396.66,426.79,498.86,311.05,102.2-211.39,716.58-928.4,147.32Z"/>
              <path class="cls-37" d="M1434.26,1090.15c-262.2-208.17,348.62-136.77,207.09-339.93-276.85-397.42,145.03,22.55,317.54-335.91,106.48-221.26,121.05,414.87,446.38,521.76,325.33,106.89-221.09,749.47-971.01,154.08Z"/>
              <path class="cls-5" d="M1414.46,1096.28c-273.71-217.31,363.92-142.77,216.18-354.84-289-414.86,151.4,23.54,331.48-350.65,111.15-230.97,126.36,433.07,465.96,544.65,339.6,111.58-230.79,782.36-1013.62,160.84Z"/>
              <path class="cls-44" d="M1394.66,1102.4c-290.72-221.57,379.21-148.77,225.27-369.76-301.15-432.3,157.76,24.53,345.41-365.39,115.83-240.68,131.67,451.28,485.55,567.55,353.88,116.27-256.57,828.9-1056.24,167.6Z"/>
            </g>
          </g>
          <g class="cls-125">
            <g>
              <path class="cls-7" d="M-7.61,214.25C-165.73,235.08,63.52,55.15-52.21,34.95-278.59-4.57,4.06-5.19-58.37-179.23c-38.54-107.42,179.93,96.3,325.04,24.71C411.78-226.12,443.32,172.55-7.61,214.25Z"/>
              <path class="cls-16" d="M-18.3,234.03C-192.36,253.55,60.09,58.68-67.45,36.42-316.96-7.14-5.44-7.83-74.25-199.64c-42.47-118.4,198.31,106.14,358.25,27.23C443.94-251.32,479.52,178.21-18.3,234.03Z"/>
              <path class="cls-65" d="M-28.99,253.82c-190.19,21.33,85.66-191.6-53.71-215.93C-355.34-9.71-14.94-10.46-90.12-220.06c-46.41-129.37,216.69,115.98,391.46,29.76C476.1-276.53,514.98,192.82-28.99,253.82Z"/>
              <path class="cls-45" d="M-39.68,273.6c-206.33,23.14,92.93-207.86-58.27-234.25C-393.71-12.28-24.43-13.09-106-240.47c-50.35-140.35,235.08,125.82,424.67,32.28,189.59-93.54,231.77,415.62-358.35,481.79Z"/>
              <path class="cls-31" d="M-50.37,293.39c-222.46,24.95,100.19-224.11-62.82-252.57C-432.09-14.84-33.93-15.73-121.88-260.89c-54.28-151.32,253.46,135.66,457.88,34.81,204.42-100.85,249.89,448.12-386.37,519.47Z"/>
              <path class="cls-59" d="M-61.06,313.18c-238.6,26.76,107.46-240.36-67.38-270.89-342.02-59.71,85.01-60.65-9.32-323.59-58.22-162.3,271.84,145.5,491.09,37.33,219.24-108.17,268.02,480.62-414.39,557.15Z"/>
              <path class="cls-43" d="M-71.75,332.96c-254.73,28.57,114.73-256.62-71.94-289.2-365.15-63.74,90.76-64.75-9.94-345.47-62.16-173.27,290.22,155.34,524.29,39.85,234.07-115.48,286.14,513.12-442.41,594.82Z"/>
              <path class="cls-3" d="M-82.44,352.75C-353.31,383.12,39.56,79.88-158.93,45.23c-388.28-67.78,96.51-68.86-10.57-367.36-66.09-184.25,308.61,165.18,557.5,42.38,248.9-122.8,304.27,545.62-470.44,632.5Z"/>
              <path class="cls-75" d="M-93.13,372.54C-380.13,404.72,36.13,83.41-174.18,46.7c-411.41-71.82,102.25-72.96-11.2-389.24-70.03-195.22,326.99,175.02,590.71,44.9C669.05-427.75,727.72,280.49-93.13,372.54Z"/>
              <path class="cls-36" d="M-103.82,392.32C-406.95,426.32,32.71,86.94-189.42,48.17c-434.54-75.86,108-77.06-11.83-411.12-73.97-206.2,345.37,184.86,623.92,47.43C701.21-452.95,763.18,295.1-103.82,392.32Z"/>
              <path class="cls-50" d="M-114.51,412.11C-433.78,447.91,29.29,90.47-204.67,49.63c-457.67-79.89,113.75-81.16-12.46-433-77.91-217.17,363.75,194.7,657.13,49.95C733.37-478.16,798.63,309.71-114.51,412.11Z"/>
              <path class="cls-58" d="M-125.2,431.9C-460.6,469.51,25.86,94.01-219.91,51.1c-480.8-83.93,119.5-85.26-13.09-454.88-81.84-228.15,382.14,204.53,690.34,52.48C765.53-503.36,834.09,324.32-125.2,431.9Z"/>
              <path class="cls-33" d="M-135.89,451.68C-487.43,491.1,22.44,97.54-235.16,52.57c-503.92-87.97,125.25-89.36-13.72-476.77-85.78-239.12,400.52,214.37,723.55,55,323.03-159.37,394.89,708.13-610.55,820.88Z"/>
              <path class="cls-61" d="M-146.58,471.47C-514.25,512.7,19.02,101.07-250.41,54.04c-527.05-92.01,131-93.47-14.35-498.65-89.72-250.1,418.9,224.21,756.75,57.53,337.85-166.69,413.01,740.63-638.57,858.55Z"/>
              <path class="cls-13" d="M-157.27,491.25C-541.08,534.29,15.6,104.6-265.65,55.51c-550.18-96.04,136.75-97.57-14.98-520.53-93.65-261.07,437.29,234.05,789.96,60.05,352.68-174,431.14,773.13-666.59,896.23Z"/>
              <path class="cls-34" d="M-167.96,511.04C-568.4,563.8,12.17,108.14-280.9,56.98c-573.31-100.08,142.49-101.67-15.61-542.41-97.59-272.05,455.67,243.89,823.17,62.57,367.5-181.32,447.37,828.32-694.61,933.9Z"/>
            </g>
          </g>
        </g>
      </g>
      <g>
        <g>
          <g class="cls-121">
            <path class="cls-110" d="M1716.28,440.88l-288.3,288.3c-1.25,1.25-1.25,3.27,0,4.51h0c1.25,1.25,3.27,1.25,4.51,0l288.3-288.3c1.25-1.25,1.25-3.27,0-4.51h0c-1.25-1.25-3.27-1.25-4.51,0Z"/>
            <path class="cls-93" d="M1717.3,442.71l-282.57,282.57c-.46.46-.46,1.2,0,1.66h0c.46.46,1.2.46,1.66,0l282.57-282.57c.46-.46.46-1.2,0-1.66h0c-.46-.46-1.2-.46-1.66,0Z"/>
          </g>
          <g class="cls-121">
            <path class="cls-99" d="M1615.14,363.6l-133.62,133.62c-1.25,1.25-1.25,3.27,0,4.51h0c1.25,1.25,3.27,1.25,4.51,0l133.62-133.62c1.25-1.25,1.25-3.27,0-4.51h0c-1.25-1.25-3.27-1.25-4.51,0Z"/>
            <path class="cls-116" d="M1616.16,365.43l-127.9,127.9c-.46.46-.46,1.2,0,1.66h0c.46.46,1.2.46,1.66,0l127.9-127.9c.46-.46.46-1.2,0-1.66h0c-.46-.46-1.2-.46-1.66,0Z"/>
          </g>
          <g class="cls-121">
            <path class="cls-114" d="M1593.21,637.47l-97.33,97.33c-.91.91-.91,2.38,0,3.29h0c.91.91,2.38.91,3.29,0l97.33-97.33c.91-.91.91-2.38,0-3.29h0c-.91-.91-2.38-.91-3.29,0Z"/>
            <path class="cls-117" d="M1593.95,638.8l-93.15,93.15c-.33.33-.33.87,0,1.21h0c.33.33.87.33,1.21,0l93.15-93.15c.33-.33.33-.87,0-1.21h0c-.33-.33-.87-.33-1.21,0Z"/>
          </g>
          <g class="cls-121">
            <path class="cls-109" d="M1780.52,565.29l-97.33,97.33c-.91.91-.91,2.38,0,3.29h0c.91.91,2.38.91,3.29,0l97.33-97.33c.91-.91.91-2.38,0-3.29h0c-.91-.91-2.38-.91-3.29,0Z"/>
            <path class="cls-90" d="M1781.27,566.62l-93.15,93.15c-.33.33-.33.87,0,1.21h0c.33.33.87.33,1.21,0l93.15-93.15c.33-.33.33-.87,0-1.21h0c-.33-.33-.87-.33-1.21,0Z"/>
          </g>
          <g class="cls-121">
            <path class="cls-85" d="M1571.3,494.34l-97.33,97.33c-.91.91-.91,2.38,0,3.29h0c.91.91,2.38.91,3.29,0l97.33-97.33c.91-.91.91-2.38,0-3.29h0c-.91-.91-2.38-.91-3.29,0Z"/>
            <path class="cls-108" d="M1572.04,495.67l-93.15,93.15c-.33.33-.33.87,0,1.21h0c.33.33.87.33,1.21,0l93.15-93.15c.33-.33.33-.87,0-1.21h0c-.33-.33-.87-.33-1.21,0Z"/>
          </g>
          <g class="cls-121">
            <path class="cls-115" d="M1719.92,566.49l-133.62,133.62c-1.25,1.25-1.25,3.27,0,4.51h0c1.25,1.25,3.27,1.25,4.51,0l133.62-133.62c1.25-1.25,1.25-3.27,0-4.51h0c-1.25-1.25-3.27-1.25-4.51,0Z"/>
            <path class="cls-89" d="M1720.95,568.32l-127.9,127.9c-.46.46-.46,1.2,0,1.66h0c.46.46,1.2.46,1.66,0l127.9-127.9c.46-.46.46-1.2,0-1.66h0c-.46-.46-1.2-.46-1.66,0Z"/>
          </g>
        </g>
        <g>
          <g class="cls-121">
            <path class="cls-96" d="M206.04,553.86l288.3-288.3c1.25-1.25,1.25-3.27,0-4.51h0c-1.25-1.25-3.27-1.25-4.51,0l-288.3,288.3c-1.25,1.25-1.25,3.27,0,4.51h0c1.25,1.25,3.27,1.25,4.51,0Z"/>
            <path class="cls-103" d="M205.02,552.03l282.57-282.57c.46-.46.46-1.2,0-1.66h0c-.46-.46-1.2-.46-1.66,0l-282.57,282.57c-.46.46-.46,1.2,0,1.66h0c.46.46,1.2.46,1.66,0Z"/>
          </g>
          <g class="cls-121">
            <path class="cls-84" d="M307.18,631.14l133.62-133.62c1.25-1.25,1.25-3.27,0-4.51h0c-1.25-1.25-3.27-1.25-4.51,0l-133.62,133.62c-1.25,1.25-1.25,3.27,0,4.51h0c1.25,1.25,3.27,1.25,4.51,0Z"/>
            <path class="cls-111" d="M306.15,629.3l127.9-127.9c.46-.46.46-1.2,0-1.66h0c-.46-.46-1.2-.46-1.66,0l-127.9,127.9c-.46.46-.46,1.2,0,1.66h0c.46.46,1.2.46,1.66,0Z"/>
          </g>
          <g class="cls-121">
            <path class="cls-100" d="M329.11,357.27l97.33-97.33c.91-.91.91-2.38,0-3.29h0c-.91-.91-2.38-.91-3.29,0l-97.33,97.33c-.91.91-.91,2.38,0,3.29h0c.91.91,2.38.91,3.29,0Z"/>
            <path class="cls-97" d="M328.36,355.94l93.15-93.15c.33-.33.33-.87,0-1.21h0c-.33-.33-.87-.33-1.21,0l-93.15,93.15c-.33.33-.33.87,0,1.21h0c.33.33.87.33,1.21,0Z"/>
          </g>
          <g class="cls-121">
            <path class="cls-86" d="M141.79,429.45l97.33-97.33c.91-.91.91-2.38,0-3.29h0c-.91-.91-2.38-.91-3.29,0l-97.33,97.33c-.91.91-.91,2.38,0,3.29h0c.91.91,2.38.91,3.29,0Z"/>
            <path class="cls-92" d="M141.05,428.12l93.15-93.15c.33-.33.33-.87,0-1.21h0c-.33-.33-.87-.33-1.21,0l-93.15,93.15c-.33.33-.33.87,0,1.21h0c.33.33.87.33,1.21,0Z"/>
          </g>
          <g class="cls-121">
            <path class="cls-107" d="M351.02,500.4l97.33-97.33c.91-.91.91-2.38,0-3.29h0c-.91-.91-2.38-.91-3.29,0l-97.33,97.33c-.91.91-.91,2.38,0,3.29h0c.91.91,2.38.91,3.29,0Z"/>
            <path class="cls-95" d="M350.28,499.07l93.15-93.15c.33-.33.33-.87,0-1.21h0c-.33-.33-.87-.33-1.21,0l-93.15,93.15c-.33.33-.33.87,0,1.21h0c.33.33.87.33,1.21,0Z"/>
          </g>
          <g class="cls-121">
            <path class="cls-91" d="M202.39,428.25l133.62-133.62c1.25-1.25,1.25-3.27,0-4.51h0c-1.25-1.25-3.27-1.25-4.51,0l-133.62,133.62c-1.25,1.25-1.25,3.27,0,4.51h0c1.25,1.25,3.27,1.25,4.51,0Z"/>
            <path class="cls-98" d="M201.37,426.42l127.9-127.9c.46-.46.46-1.2,0-1.66h0c-.46-.46-1.2-.46-1.66,0l-127.9,127.9c-.46.46-.46,1.2,0,1.66h0c.46.46,1.2.46,1.66,0Z"/>
          </g>
        </g>
      </g>
      <g>
        <g>
          <path class="cls-81" d="M570.85,429.33c-74.42-20.15,62.73-60.73,15.19-92-93-61.17,32.88-8.09,39.1-101.01,3.84-57.35,61.24,78.87,139.79,72.9,78.55-5.97,14.69,185.83-194.08,120.11Z"/>
          <path class="cls-70" d="M562.77,436.09c-80.93-23.68,68.74-66.55,16.64-100.82-101.91-67.03,36.03-8.86,42.85-110.68,4.21-62.85,67.1,86.43,153.18,79.89,86.08-6.54,17.98,199.1-212.67,131.62Z"/>
          <path class="cls-4" d="M554.68,442.84c-88.01-25.75,74.75-72.37,18.1-109.63-110.82-72.89,39.18-9.64,46.59-120.36,4.58-68.34,72.97,93.98,166.57,86.87,93.6-7.11,19.55,216.51-231.26,143.12Z"/>
          <path class="cls-52" d="M546.6,449.6c-95.08-27.82,80.75-78.18,19.55-118.44-119.72-78.75,42.32-10.41,50.34-130.03,4.95-73.83,78.83,101.54,179.96,93.85,101.12-7.69,21.13,233.91-249.85,154.62Z"/>
          <path class="cls-80" d="M538.52,456.35c-102.15-29.89,86.76-84,21.01-127.25-128.63-84.61,45.47-11.19,54.08-139.71,5.31-79.33,84.7,109.09,193.35,100.83,108.65-8.26,22.7,251.31-268.44,166.13Z"/>
          <path class="cls-57" d="M530.43,463.1c-109.23-31.96,92.77-89.82,22.46-136.07-137.54-90.47,48.62-11.96,57.83-149.38,5.68-84.82,90.57,116.65,206.74,107.82,116.17-8.83,24.27,268.72-287.03,177.63Z"/>
          <path class="cls-47" d="M522.35,469.86c-116.3-34.03,98.78-95.63,23.92-144.88-146.45-96.33,51.77-12.74,61.57-159.06,6.05-90.32,96.43,124.2,220.13,114.8,123.7-9.4,25.84,286.12-305.62,189.14Z"/>
          <path class="cls-27" d="M514.27,476.61c-123.38-36.1,104.79-101.45,25.37-153.69-155.35-102.19,54.92-13.51,65.32-168.73,6.42-95.81,102.3,131.76,233.52,121.78,131.22-9.97,27.41,303.53-324.21,200.64Z"/>
          <path class="cls-48" d="M506.18,483.37c-130.45-38.17,110.8-107.27,26.83-162.5-164.26-108.05,58.07-14.29,69.07-178.41,6.79-101.3,108.16,139.31,246.9,128.76,138.74-10.55,28.99,320.93-342.8,212.15Z"/>
          <path class="cls-56" d="M498.1,490.12c-137.53-40.24,116.8-113.09,28.28-171.32-173.17-113.91,61.22-15.06,72.81-188.08,7.15-106.8,114.03,146.87,260.29,135.75,146.27-11.12,30.56,338.33-361.39,223.65Z"/>
          <path class="cls-41" d="M490.02,496.88c-144.6-42.31,122.81-118.9,29.74-180.13-182.08-119.77,64.37-15.84,76.56-197.76,7.52-112.29,119.89,154.42,273.68,142.73,153.79-11.69,32.13,355.74-379.97,235.16Z"/>
          <path class="cls-11" d="M481.94,503.63c-151.67-44.38,128.82-124.72,31.19-188.94-190.99-125.63,67.52-16.61,80.3-207.43,7.89-117.78,125.76,161.98,287.07,149.71,161.32-12.26,33.7,373.14-398.56,246.66Z"/>
          <path class="cls-9" d="M473.85,510.39c-158.75-46.45,134.83-130.54,32.64-197.75-199.89-131.49,70.67-17.39,84.05-217.11,8.26-123.28,131.62,169.53,300.46,156.7,168.84-12.83,35.27,390.54-417.15,258.16Z"/>
          <path class="cls-19" d="M465.77,517.14c-165.82-48.52,140.84-136.35,34.1-206.56-208.8-137.35,73.82-18.16,87.79-226.78,8.63-128.77,137.49,177.08,313.85,163.68,176.36-13.41,36.85,407.95-435.74,269.67Z"/>
          <path class="cls-74" d="M457.69,523.9c-172.9-50.59,146.84-142.17,35.55-215.38-217.71-143.21,76.96-18.94,91.54-236.46,9-134.26,143.35,184.64,327.24,170.66,183.89-13.98,38.42,425.35-454.33,281.17Z"/>
          <path class="cls-78" d="M449.6,530.65c-179.97-52.66,152.85-147.99,37.01-224.19-226.62-149.07,80.11-19.71,95.28-246.13,9.36-139.76,149.22,192.19,340.63,177.64,191.41-14.55,39.99,442.75-472.92,292.68Z"/>
          <path class="cls-17" d="M441.52,537.41c-188.47-51.03,158.86-153.81,38.46-233-235.52-154.93,83.26-20.48,99.03-255.81,9.73-145.25,155.09,199.75,354.02,184.63,198.93-15.12,37.21,470.62-491.51,304.18Z"/>
        </g>
        <g>
          <path class="cls-14" d="M1140.79,269.07c29.09-70.31,50.72,47.56,87.12-.13,71.2-93.29,3.6,28.5,92.76,20.13,55.04-5.17-84.25,67.25-88.58,137.36-4.33,70.11-181.82,41.28-91.3-157.35Z"/>
          <path class="cls-40" d="M1134.51,261.88c33.65-77.43,56.28,52.76,96.66-.15,79-103.5,3.99,31.62,102.92,22.33,61.06-5.73-93.47,74.61-98.28,152.39-4.81,77.79-197.82,47.54-101.3-174.58Z"/>
          <path class="cls-69" d="M1128.22,254.69c36.97-85.07,61.83,57.97,106.2-.16,86.79-113.72,4.39,34.74,113.07,24.54,67.08-6.3-102.7,81.97-107.98,167.43-5.28,85.46-217.33,52.23-111.29-191.8Z"/>
          <path class="cls-54" d="M1121.94,247.5c40.29-92.71,67.38,63.17,115.73-.18,94.59-123.93,4.78,37.86,123.23,26.74,73.11-6.87-111.92,89.33-117.67,182.47-5.76,93.14-236.85,56.92-121.29-209.03Z"/>
          <path class="cls-63" d="M1115.66,240.32c43.6-100.35,72.93,68.38,125.27-.19,102.38-134.14,5.17,40.98,133.38,28.94,79.13-7.43-121.14,96.69-127.37,197.5-6.23,100.81-256.37,61.61-131.28-226.25Z"/>
          <path class="cls-18" d="M1109.37,233.13c46.92-107.99,78.49,73.58,134.81-.21,110.18-144.35,5.57,44.1,143.53,31.15,85.16-8-130.36,104.05-137.07,212.54-6.7,108.49-275.88,66.3-141.27-243.48Z"/>
          <path class="cls-20" d="M1103.09,225.94c50.24-115.63,84.04,78.79,144.35-.22,117.97-154.56,5.96,47.22,153.69,33.35,91.18-8.56-139.59,111.41-146.76,227.57-7.18,116.16-295.4,70.99-151.27-260.7Z"/>
          <path class="cls-21" d="M1096.8,218.75c53.56-123.27,89.59,84,153.88-.24,125.76-164.78,6.36,50.34,163.84,35.55,97.21-9.13-148.81,118.77-156.46,242.61-7.65,123.84-314.92,75.69-161.26-277.92Z"/>
          <path class="cls-24" d="M1090.52,211.57c56.88-130.91,95.15,89.2,163.42-.25,133.56-174.99,6.75,53.46,174,37.76,103.23-9.7-158.03,126.13-166.16,257.64-8.13,131.51-334.44,80.38-171.26-295.15Z"/>
          <path class="cls-67" d="M1084.23,204.38c60.2-138.55,100.7,94.41,172.96-.27,141.35-185.2,7.14,56.58,184.15,39.96,109.26-10.26-167.25,133.49-175.85,272.68-8.6,139.19-353.95,85.07-181.25-312.37Z"/>
          <path class="cls-10" d="M1077.95,197.19c63.52-146.19,106.25,99.61,182.49-.28,149.15-195.41,7.54,59.7,194.31,42.16,115.28-10.83-176.48,140.86-185.55,287.72-9.08,146.86-373.47,89.76-191.25-329.6Z"/>
          <path class="cls-42" d="M1071.66,190c66.84-153.83,111.8,104.82,192.03-.3,156.94-205.63,7.93,62.82,204.46,44.37,121.31-11.39-185.7,148.22-195.25,302.75-9.55,154.54-392.99,94.45-201.24-346.82Z"/>
          <path class="cls-26" d="M1065.38,182.81c70.16-161.46,117.36,110.02,201.57-.31,164.74-215.84,8.33,65.94,214.61,46.57,127.33-11.96-194.92,155.58-204.94,317.79-10.02,162.21-412.51,99.14-211.24-364.05Z"/>
          <path class="cls-51" d="M1059.09,175.63c73.48-169.1,122.91,115.23,211.1-.32,172.53-226.05,8.72,69.06,224.77,48.77,133.35-12.52-204.14,162.94-214.64,332.82-10.5,169.89-432.02,103.83-221.23-381.27Z"/>
          <path class="cls-8" d="M1052.81,168.44c73.67-178.07,128.46,120.44,220.64-.34,180.32-236.26,9.11,72.18,234.92,50.98,139.38-13.09-213.37,170.3-224.34,347.86-10.97,177.56-460.45,104.55-231.22-398.5Z"/>
        </g>
        <g>
          <path class="cls-68" d="M920.47,220.57c72.55,25.75-54.37,61.11-6.42,97.17,93.8,70.54-30.57,6.73-28.39,105.39,1.35,60.9-65.13-87.58-139.33-85.73-74.2,1.85-30.18-198.88,174.14-116.84Z"/>
          <path class="cls-71" d="M928.04,213.38c79.37,30.01-59.93,67.36-7.08,107.1,103.38,77.75-33.69,7.42-31.29,116.16,1.48,67.12-71.78-96.52-153.56-94.49-81.78,2.03-35.06-214.59,191.93-128.77Z"/>
          <path class="cls-6" d="M935.61,206.2c86.72,32.79-65.48,73.6-7.74,117.03,112.96,84.95-36.81,8.1-34.19,126.93,1.62,73.34-78.44-105.47-167.8-103.25-89.36,2.22-38.31-234.49,209.72-140.71Z"/>
          <path class="cls-29" d="M943.19,199.02c94.08,35.57-71.04,79.84-8.39,126.96,122.55,92.16-39.94,8.79-37.09,137.7,1.76,79.57-85.09-114.42-182.03-112.01-96.94,2.41-41.56-254.38,227.51-152.65Z"/>
          <path class="cls-66" d="M950.76,191.84c101.44,38.35-76.59,86.09-9.05,136.88,132.13,99.37-43.06,9.48-39.99,148.46,1.9,85.79-91.74-123.36-196.27-120.77-104.52,2.6-44.81-274.27,245.3-164.58Z"/>
          <path class="cls-35" d="M958.33,184.65c108.79,41.13-82.15,92.33-9.71,146.81,141.71,106.58-46.18,10.17-42.89,159.23,2.03,92.01-98.4-132.31-210.5-129.52-112.1,2.79-48.06-294.16,263.09-176.52Z"/>
          <path class="cls-76" d="M965.9,177.47c116.15,43.91-87.7,98.57-10.36,156.74,151.3,113.78-49.31,10.85-45.79,170,2.17,98.23-105.05-141.26-224.74-138.28-119.68,2.98-51.31-314.05,280.89-188.46Z"/>
          <path class="cls-55" d="M973.48,170.29c123.51,46.7-93.26,104.82-11.02,166.67,160.88,120.99-52.43,11.54-48.69,180.77,2.31,104.45-111.71-150.21-238.97-147.04-127.26,3.16-54.56-333.95,298.68-200.39Z"/>
          <path class="cls-2" d="M981.05,163.11c130.86,49.48-98.81,111.06-11.67,176.59,170.46,128.2-55.55,12.23-51.59,191.53,2.45,110.67-118.36-159.15-253.21-155.8-134.85,3.35-57.81-353.84,316.47-212.33Z"/>
          <path class="cls-23" d="M988.62,155.92c138.22,52.26-104.37,117.31-12.33,186.52,180.05,135.4-58.68,12.92-54.49,202.3,2.58,116.9-125.01-168.1-267.44-164.56-142.43,3.54-61.06-373.73,334.26-224.27Z"/>
          <path class="cls-77" d="M996.2,148.74c145.58,55.04-109.92,123.55-12.99,196.45,189.63,142.61-61.8,13.6-57.39,213.07,2.72,123.12-131.67-177.05-281.68-173.32-150.01,3.73-64.31-393.62,352.05-236.2Z"/>
          <path class="cls-30" d="M1003.77,141.56c152.93,57.82-115.48,129.79-13.64,206.38,199.21,149.82-64.92,14.29-60.29,223.84,2.86,129.34-138.32-186-295.91-182.08-157.59,3.92-67.56-413.51,369.84-248.14Z"/>
          <path class="cls-79" d="M1011.34,134.38c160.29,60.6-121.03,136.04-14.3,216.31,208.8,157.02-68.04,14.98-63.19,234.61,3,135.56-144.98-194.94-310.15-190.84-165.17,4.11-70.81-433.41,387.63-260.08Z"/>
          <path class="cls-82" d="M1018.91,127.2c167.65,63.38-126.59,142.28-14.96,226.23,218.38,164.23-71.17,15.67-66.09,245.37,3.14,141.78-151.63-203.89-324.38-199.59-172.75,4.3-74.06-453.3,405.42-272.01Z"/>
          <path class="cls-1" d="M1026.49,120.01c175,66.17-132.14,148.52-15.61,236.16,227.96,171.44-74.29,16.35-68.99,256.14,3.27,148.01-158.28-212.84-338.61-208.35-180.33,4.48-77.31-473.19,423.22-283.95Z"/>
          <path class="cls-60" d="M1034.06,112.83c183.73,65.22-137.7,154.77-16.27,246.09,237.54,178.64-77.41,17.04-71.89,266.91,3.41,154.23-164.94-221.78-352.85-217.11-187.91,4.67-76.43-503.67,441.01-295.89Z"/>
        </g>
        <g>
          <path class="cls-68" d="M988.79,407.43c-32.01,70.01-56.11-59.52-96.24-14.91-78.49,87.26-4.03-31.04-102.5-37.51-60.78-3.99,92.94-57.21,97.61-131.28,4.66-74.08,200.76-12.64,101.13,183.7Z"/>
          <path class="cls-71" d="M995.29,415.6c-36.84,76.43-61.85-65.6-106.07-16.43-86.51,96.17-4.44-34.21-112.97-41.34-66.99-4.4,102.44-63.05,107.58-144.7,5.14-81.64,216.84-16.13,111.46,202.47Z"/>
          <path class="cls-6" d="M1001.78,423.77c-40.26,83.52-67.58-71.68-115.9-17.96-94.52,105.09-4.85-37.38-123.45-45.17-73.2-4.81,111.94-68.9,117.55-158.11s236.94-17.62,121.8,221.24Z"/>
          <path class="cls-29" d="M1008.27,431.94c-43.67,90.6-73.31-77.76-125.73-19.48-102.54,114-5.26-40.55-133.92-49.01-79.41-5.22,121.43-74.74,127.52-171.52,6.09-96.78,257.04-19.12,132.13,240.01Z"/>
          <path class="cls-66" d="M1014.76,440.12c-47.09,97.69-79.05-83.84-135.56-21.01-110.56,122.92-5.67-43.73-144.39-52.84-85.62-5.63,130.93-80.58,137.49-184.93,6.57-104.35,277.14-20.61,142.46,258.78Z"/>
          <path class="cls-35" d="M1021.25,448.29c-50.5,104.77-84.78-89.92-145.4-22.53-118.58,131.83-6.08-46.9-154.86-56.67-91.83-6.03,140.42-86.43,147.47-198.35,7.04-111.92,297.24-22.11,152.79,277.55Z"/>
          <path class="cls-76" d="M1027.74,456.46c-53.92,111.86-90.51-96-155.23-24.05-126.6,140.75-6.49-50.07-165.33-60.5-98.04-6.44,149.92-92.27,157.44-211.76,7.52-119.48,317.34-23.6,163.12,296.32Z"/>
          <path class="cls-55" d="M1034.23,464.64c-57.34,118.94-96.25-102.08-165.06-25.58-134.62,149.66-6.9-53.24-175.81-64.34-104.25-6.85,159.41-98.12,167.41-225.17,8-127.05,337.44-25.1,173.46,315.08Z"/>
          <path class="cls-2" d="M1040.72,472.81c-60.75,126.03-101.98-108.16-174.89-27.1-142.64,158.58-7.32-56.41-186.28-68.17-110.46-7.26,168.91-103.96,177.38-238.58,8.47-134.62,357.54-26.59,183.79,333.85Z"/>
          <path class="cls-23" d="M1047.22,480.98c-64.17,133.11-107.71-114.24-184.73-28.62-150.65,167.49-7.73-59.58-196.75-72-116.67-7.67,178.41-109.81,187.35-252,8.95-142.19,377.64-28.09,194.12,352.62Z"/>
          <path class="cls-77" d="M1053.71,489.16c-67.58,140.2-113.44-120.32-194.56-30.15-158.67,176.41-8.14-62.75-207.22-75.83-122.88-8.07,187.9-115.65,197.33-265.41,9.43-149.76,397.74-29.58,204.45,371.39Z"/>
          <path class="cls-30" d="M1060.2,497.33c-71,147.28-119.18-126.4-204.39-31.67-166.69,185.32-8.55-65.92-217.7-79.67-129.09-8.48,197.4-121.5,207.3-278.82,9.9-157.33,417.84-31.08,214.79,390.16Z"/>
          <path class="cls-79" d="M1066.69,505.5c-74.41,154.37-124.91-132.49-214.22-33.19-174.71,194.24-8.96-69.1-228.17-83.5-135.3-8.89,206.89-127.34,217.27-292.24,10.38-164.89,437.94-32.57,225.12,408.93Z"/>
          <path class="cls-82" d="M1073.18,513.68c-77.83,161.45-130.64-138.57-224.05-34.72-182.73,203.15-9.37-72.27-238.64-87.33-141.51-9.3,216.39-133.19,227.24-305.65,10.85-172.46,458.04-34.07,235.45,427.69Z"/>
          <path class="cls-1" d="M1079.67,521.85c-81.24,168.54-136.38-144.65-233.89-36.24-190.75,212.07-9.78-75.44-249.11-91.16-147.72-9.71,225.89-139.03,237.22-319.06,11.33-180.03,478.14-35.56,245.78,446.46Z"/>
          <path class="cls-60" d="M1086.16,530.02c-81.06,177.31-142.11-150.73-243.72-37.76-198.77,220.98-10.19-78.61-259.58-94.99-153.93-10.11,235.38-144.88,247.19-332.47,11.81-187.6,508.43-32.02,256.12,465.23Z"/>
        </g>
        <g>
          <rect class="cls-105" x="541.9" y="252.81" width="810.65" height="222.47" rx="106.88" ry="106.88"/>
          <rect class="cls-106" x="555.27" y="258.87" width="783.91" height="210.34" rx="102.19" ry="102.19"/>
          <g>
            <g>
              <polygon class="cls-101" points="712.17 310.61 1205.19 310.61 1205.19 396.72 712.17 396.72 712.17 310.61 712.17 310.61"/>
              <path class="cls-113" d="M745.29,333.14c-.13,0-.34.02-.46.04,0,0-7.04,1.35-9.78,4.09-2.74,2.74-4.09,9.78-4.09,9.78-.02.13-.04.34-.04.47v41.11c0,.13.11.23.23.23h9.48c.13,0,.24-.1.24-.23v-41.08c0-.13.02-.34.04-.47,0,0,.36-1.94,1.18-2.76.82-.83,2.76-1.19,2.76-1.19.13-.02.34-.04.47-.04h26.91c.13,0,.34.02.47.04,0,0,1.93.36,2.76,1.19.83.83,1.18,2.76,1.18,2.76.02.13.04.34.04.47v41.08c0,.13.11.23.24.23h9.48c.13,0,.23-.1.23-.23v-41.11c0-.13-.02-.34-.04-.47,0,0-1.35-7.04-4.09-9.78s-9.78-4.09-9.78-4.09c-.13-.02-.34-.04-.47-.04h-26.96Z"/>
              <path class="cls-113" d="M867.87,333.14c-.13,0-.34.02-.47.04,0,0-7.03,1.35-9.77,4.09-2.74,2.74-4.09,9.78-4.09,9.78-.02.13-.04.34-.04.47v3.6c0,.13.02.34.04.47,0,0,1.35,7.11,4.09,9.82,2.74,2.72,9.77,4.05,9.77,4.05.13.03.34.04.47.04h26.94c.13,0,.34.02.47.04,0,0,1.94.36,2.76,1.18.83.82,1.19,2.84,1.19,2.84.02.13.04.34.04.47v4.43c0,.13-.02.34-.04.46,0,0-.36,1.94-1.18,2.76-.83.82-2.76,1.18-2.76,1.18-.13.02-.34.04-.47.04h-26.36c-.13,0-.34-.02-.47-.04,0,0-1.94-.36-2.76-1.18-.83-.82-1.18-2.75-1.18-2.75-.02-.13-.04-.34-.04-.47v-3.84c0-.13-.11-.24-.24-.24h-9.44c-.13,0-.24.11-.24.24v3.86c0,.13.02.34.04.47,0,0,1.35,7.03,4.09,9.77,2.74,2.74,9.78,4.08,9.78,4.08.13.02.34.04.47.04h26.37c.13,0,.34-.02.47-.04,0,0,7.04-1.35,9.78-4.09,2.74-2.74,4.09-9.79,4.09-9.79.02-.13.04-.34.04-.47v-4.44c0-.13-.02-.34-.04-.47,0,0-1.35-6.98-4.08-9.75-2.74-2.77-9.78-4.14-9.78-4.14-.13-.02-.34-.04-.47-.04h-26.94c-.13,0-.34-.02-.47-.04,0,0-1.94-.36-2.76-1.18-.83-.82-1.19-2.83-1.19-2.83-.02-.13-.04-.34-.04-.47v-3.58c0-.13.02-.34.04-.47,0,0,.36-1.93,1.18-2.75.83-.82,2.76-1.18,2.76-1.18.13-.02.34-.04.47-.04h26.33c.13,0,.34.02.47.04,0,0,1.93.36,2.76,1.19.82.83,1.18,2.76,1.18,2.76.02.13.04.34.04.47v3.78c0,.13.11.23.24.23h9.44c.13,0,.23-.1.23-.23v-3.79c0-.13-.02-.34-.04-.47,0,0-1.26-7.11-3.83-9.83-2.58-2.72-9.45-4.06-9.45-4.06-.12-.02-.34-.05-.47-.05h-26.94Z"/>
              <path class="cls-113" d="M923.75,342.49h-9.54c-.13,0-.24.1-.24.23v45.91c0,.13.11.23.24.23h9.48c.13,0,.23-.1.23-.23v-45.91c0-.13-.08-.23-.17-.23Z"/>
              <path class="cls-113" d="M1005.18,333.14c-.13,0-.34.02-.46.04,0,0-7.04,1.35-9.78,4.09-2.74,2.74-4.09,9.78-4.09,9.78-.03.13-.05.34-.05.47v41.11c0,.13.11.23.23.23h9.48c.13,0,.23-.1.23-.23v-41.08c0-.13.02-.34.04-.47,0,0,.36-1.94,1.18-2.76.82-.83,2.76-1.19,2.76-1.19.13-.02.34-.04.47-.04h26.91c.13,0,.33.02.46.04,0,0,1.93.36,2.76,1.19.83.83,1.18,2.76,1.18,2.76.02.13.04.34.04.47v41.08c0,.13.11.23.24.23h9.48c.13,0,.24-.1.24-.23v-41.11c0-.13-.02-.34-.04-.47,0,0-1.35-7.04-4.09-9.78-2.75-2.74-9.78-4.09-9.78-4.09-.13-.02-.34-.04-.46-.04h-26.96Z"/>
              <path class="cls-113" d="M1123.14,333.14h-9.5c-.13,0-.24.11-.24.24v41.1c0,.13.02.34.04.47,0,0,1.34,7.04,4.09,9.78,2.74,2.74,9.77,4.09,9.77,4.09.13.02.34.04.47.04h41.07c.13,0,.24-.1.24-.23v-9.44c0-.13-.11-.24-.24-.24h-41.07c-.13,0-.34-.02-.47-.04,0,0-1.94-.36-2.76-1.19-.83-.83-1.19-2.77-1.19-2.77-.02-.13-.04-.34-.04-.47v-41.11c0-.13-.08-.24-.18-.24Z"/>
              <path class="cls-83" d="M927.14,327.15c0,4.82-3.91,8.72-8.73,8.72s-8.72-3.91-8.72-8.72,3.91-8.72,8.72-8.72,8.73,3.9,8.73,8.72h0Z"/>
              <path class="cls-12" d="M927.14,327.15c0,4.82-3.91,8.72-8.73,8.72s-8.72-3.91-8.72-8.72,3.91-8.72,8.72-8.72,8.73,3.9,8.73,8.72h0Z"/>
              <path class="cls-113" d="M900.61,327.15c0,9.82,7.99,17.81,17.8,17.81s17.81-7.99,17.81-17.81-7.99-17.81-17.81-17.81-17.8,7.99-17.8,17.81ZM903.1,327.15c0-8.44,6.87-15.32,15.32-15.32s15.32,6.87,15.32,15.32-6.87,15.31-15.32,15.31-15.32-6.87-15.32-15.31Z"/>
              <path class="cls-113" d="M891.46,327.15c0,14.86,12.09,26.96,26.95,26.96s26.96-12.09,26.96-26.96-12.09-26.96-26.96-26.96-26.95,12.09-26.95,26.96ZM892.71,327.15c0-14.18,11.53-25.71,25.71-25.71s25.71,11.54,25.71,25.71-11.53,25.71-25.71,25.71-25.71-11.53-25.71-25.71Z"/>
              <path class="cls-113" d="M880.35,327.15c0,20.99,17.07,38.07,38.06,38.07s38.07-17.08,38.07-38.07-17.08-38.06-38.07-38.06-38.06,17.07-38.06,38.06ZM881.02,327.15c0-20.62,16.78-37.4,37.4-37.4s37.4,16.78,37.4,37.4-16.78,37.4-37.4,37.4-37.4-16.78-37.4-37.4Z"/>
              <g>
                <path class="cls-113" d="M1150.74,332.96c.13,0,.23.11.23.24v3.5c0,.13-.11.23-.23.23h-6.67c-.55,0-1.02.19-1.4.58-.38.38-.57.85-.57,1.4v3.54c0,.13.11.23.24.23h8.4c.13,0,.23.11.23.24v3.48c0,.13-.11.24-.23.24h-8.4c-.13,0-.24.1-.24.23v9.63c0,.13-.11.24-.24.24h-3.49c-.13,0-.23-.11-.23-.24v-9.63c0-.13-.11-.23-.24-.23h-3.52c-.13,0-.24-.11-.24-.24v-3.48c0-.13.11-.24.24-.24h3.52c.13,0,.24-.11.24-.23v-3.53c0-1.65.57-3.06,1.72-4.22,1.15-1.16,2.55-1.74,4.21-1.74h6.67Z"/>
                <path class="cls-113" d="M1173.36,336.94c-.13,0-.23.11-.23.24v19.33c0,.13-.11.24-.24.24h-3.46c-.13,0-.24-.11-.24-.24v-19.33c0-.13-.11-.24-.24-.24h-7.48c-.13,0-.34.02-.47.05l-.97.4c-.11.07-.25.22-.33.32l-.4.98c-.03.13-.05.34-.05.47v17.35c0,.13-.11.24-.23.24h-3.51c-.13,0-.23-.11-.23-.24v-17.35c0-.13.02-.34.05-.46l1.56-3.79c.07-.11.22-.26.33-.33l3.8-1.57c.13-.02.34-.04.46-.04h19.34c.13,0,.34.02.47.04l3.8,1.57c.1.07.25.22.32.33l1.57,3.79c.03.13.05.34.05.46v17.35c0,.13-.11.24-.24.24h-3.46c-.13,0-.23-.11-.23-.24v-17.35c0-.13-.02-.34-.04-.47l-.42-.98c-.07-.1-.22-.25-.33-.32l-.99-.4c-.13-.02-.34-.05-.47-.05h-7.48Z"/>
              </g>
              <path class="cls-113" d="M843.79,337.28c-2.74-2.74-9.78-4.09-9.78-4.09-.13-.02-.34-.04-.47-.04h-26.96c-.13,0-.34.02-.47.04,0,0-7.04,1.35-9.78,4.09-2.75,2.74-4.09,9.78-4.09,9.78-.02.13-.04.34-.04.47v41.11c0,.13.11.23.23.23h9.48c.13,0,.23-.1.23-.23v-22.89c0-.13.11-.23.24-.23h35.35c.13,0,.24.1.24.23v22.89c0,.13.11.23.23.23h9.48c.13,0,.23-.1.23-.23v-41.11c0-.13-.02-.34-.04-.47,0,0-1.35-7.04-4.09-9.78ZM837.98,355.41c0,.13-.11.23-.24.23h-35.35c-.13,0-.24-.11-.24-.23v-7.87c0-.13.02-.34.04-.47,0,0,.36-1.93,1.18-2.75.83-.82,2.76-1.18,2.76-1.18.13-.02.34-.04.47-.04h26.91c.13,0,.34.02.47.04,0,0,1.93.36,2.76,1.18.82.82,1.18,2.75,1.18,2.75.02.13.04.34.04.47v7.87Z"/>
              <path class="cls-113" d="M981,337.28c-2.74-2.74-9.78-4.09-9.78-4.09-.13-.02-.33-.04-.47-.04h-26.96c-.13,0-.34.02-.47.04,0,0-7.04,1.35-9.78,4.09-2.74,2.74-4.09,9.78-4.09,9.78-.02.13-.04.34-.04.47v26.96c0,.13.02.34.04.47,0,0,1.35,7.04,4.09,9.78,2.75,2.74,9.78,4.09,9.78,4.09.13.02.34.04.47.04h26.96c.13,0,.34-.02.47-.04,0,0,7.04-1.34,9.78-4.09,2.75-2.74,4.09-9.78,4.09-9.78.03-.13.04-.34.04-.47v-26.96c0-.13-.02-.34-.04-.47,0,0-1.35-7.04-4.09-9.78ZM975.19,374.46c0,.13-.02.34-.04.47,0,0-.36,1.94-1.18,2.76-.83.82-2.76,1.18-2.76,1.18-.13.02-.34.04-.47.04h-26.91c-.13,0-.34-.02-.47-.04,0,0-1.94-.36-2.76-1.18-.83-.83-1.19-2.76-1.19-2.76-.02-.13-.04-.34-.04-.47v-26.91c0-.13.02-.34.04-.47,0,0,.36-1.94,1.19-2.76.82-.83,2.76-1.18,2.76-1.18.13-.02.34-.04.47-.04h26.91c.13,0,.34.02.47.04,0,0,1.93.36,2.76,1.18.82.83,1.18,2.76,1.18,2.76.02.13.04.34.04.47v26.91Z"/>
              <path class="cls-113" d="M1103.69,337.28c-2.74-2.74-9.78-4.09-9.78-4.09-.13-.02-.34-.04-.47-.04h-26.96c-.13,0-.34.02-.47.04,0,0-7.04,1.35-9.78,4.09-2.74,2.74-4.09,9.78-4.09,9.78-.02.13-.04.34-.04.47v41.11c0,.13.1.23.23.23h9.48c.13,0,.24-.1.24-.23v-22.89c0-.13.11-.23.24-.23h35.35c.13,0,.23.1.23.23v22.89c0,.13.11.23.24.23h9.48c.13,0,.23-.1.23-.23v-41.11c0-.13-.02-.34-.04-.47,0,0-1.34-7.04-4.09-9.78ZM1097.87,355.41c0,.13-.11.23-.23.23h-35.35c-.13,0-.24-.11-.24-.23v-7.87c0-.13.02-.34.04-.47,0,0,.36-1.93,1.18-2.75.83-.82,2.76-1.18,2.76-1.18.13-.02.34-.04.46-.04h26.92c.13,0,.34.02.46.04,0,0,1.94.36,2.77,1.18.82.82,1.18,2.75,1.18,2.75.02.13.04.34.04.47v7.87Z"/>
            </g>
            <g>
              <path class="cls-113" d="M846.86,428.39c1.3.68,3.38,1.37,5.5,1.37,2.28,0,3.48-.94,3.48-2.37s-1.04-2.15-3.68-3.06c-3.64-1.3-6.05-3.32-6.05-6.51,0-3.74,3.16-6.58,8.3-6.58,2.51,0,4.3.49,5.6,1.11l-1.11,3.97c-.85-.43-2.44-1.04-4.56-1.04s-3.19,1.01-3.19,2.11c0,1.4,1.2,2.02,4.07,3.09,3.87,1.43,5.66,3.45,5.66,6.54,0,3.68-2.8,6.8-8.82,6.8-2.51,0-4.98-.68-6.22-1.37l1.01-4.07Z"/>
              <path class="cls-113" d="M868.14,427.12c.13,2.05,2.18,3.03,4.49,3.03,1.69,0,3.06-.23,4.39-.68l.65,3.35c-1.63.68-3.62,1.01-5.76,1.01-5.4,0-8.49-3.13-8.49-8.11,0-4.03,2.51-8.49,8.04-8.49,5.14,0,7.09,4.01,7.09,7.94,0,.85-.1,1.59-.16,1.95h-10.25ZM873.97,423.74c0-1.21-.52-3.22-2.8-3.22-2.08,0-2.93,1.92-3.06,3.22h5.86Z"/>
              <path class="cls-113" d="M881.52,422.66c0-1.99-.07-3.65-.13-5.08h4.3l.23,2.21h.1c.65-1.04,2.25-2.57,4.91-2.57,3.26,0,5.7,2.18,5.7,6.87v9.4h-4.95v-8.82c0-2.05-.72-3.45-2.5-3.45-1.37,0-2.18.94-2.54,1.86-.13.33-.16.78-.16,1.23v9.18h-4.95v-10.84Z"/>
              <path class="cls-113" d="M905.93,413.29v4.3h3.55v3.65h-3.55v5.76c0,1.92.49,2.8,1.95,2.8.68,0,1.01-.04,1.46-.13l.04,3.74c-.62.23-1.82.42-3.19.42-1.59,0-2.93-.55-3.74-1.37-.91-.95-1.37-2.48-1.37-4.72v-6.51h-2.12v-3.65h2.12v-2.96l4.85-1.34Z"/>
              <path class="cls-113" d="M917.45,413.16c0,1.37-1.01,2.48-2.67,2.48-1.56,0-2.57-1.11-2.57-2.48s1.04-2.47,2.64-2.47,2.57,1.07,2.6,2.47ZM912.34,433.5v-15.91h4.95v15.91h-4.95Z"/>
              <path class="cls-113" d="M934.5,429.66c0,1.5.07,2.96.26,3.84h-4.46l-.29-1.6h-.1c-1.04,1.27-2.67,1.96-4.56,1.96-3.22,0-5.14-2.35-5.14-4.88,0-4.13,3.71-6.09,9.34-6.09v-.2c0-.88-.46-2.08-2.9-2.08-1.63,0-3.35.55-4.39,1.2l-.91-3.19c1.11-.62,3.29-1.43,6.19-1.43,5.3,0,6.96,3.13,6.96,6.9v5.57ZM929.71,425.98c-2.61,0-4.62.62-4.62,2.5,0,1.27.85,1.89,1.96,1.89,1.2,0,2.24-.81,2.57-1.82.07-.26.1-.56.1-.85v-1.72Z"/>
              <path class="cls-113" d="M938.4,429.2c.91.55,2.8,1.17,4.26,1.17s2.12-.49,2.12-1.3-.49-1.24-2.31-1.85c-3.32-1.11-4.59-2.9-4.56-4.79,0-2.99,2.54-5.24,6.47-5.24,1.86,0,3.48.45,4.46.94l-.84,3.42c-.72-.39-2.12-.91-3.45-.91-1.2,0-1.89.49-1.89,1.27s.62,1.17,2.57,1.85c3.03,1.04,4.26,2.6,4.29,4.91,0,3-2.31,5.18-6.87,5.18-2.08,0-3.94-.49-5.14-1.14l.88-3.52Z"/>
              <path class="cls-113" d="M965.81,429.66c0,1.5.06,2.96.26,3.84h-4.46l-.29-1.6h-.1c-1.04,1.27-2.67,1.96-4.56,1.96-3.22,0-5.14-2.35-5.14-4.88,0-4.13,3.71-6.09,9.34-6.09v-.2c0-.88-.45-2.08-2.9-2.08-1.63,0-3.35.55-4.39,1.2l-.91-3.19c1.11-.62,3.29-1.43,6.18-1.43,5.3,0,6.97,3.13,6.97,6.9v5.57ZM961.02,425.98c-2.6,0-4.62.62-4.62,2.5,0,1.27.85,1.89,1.95,1.89,1.21,0,2.25-.81,2.57-1.82.06-.26.1-.56.1-.85v-1.72Z"/>
              <path class="cls-113" d="M976.48,411.89c1.83-.29,4.2-.49,6.67-.49,4.2,0,6.93.78,9.01,2.34,2.28,1.69,3.71,4.4,3.71,8.27,0,4.2-1.53,7.1-3.61,8.89-2.31,1.92-5.86,2.83-10.15,2.83-2.57,0-4.43-.16-5.63-.33v-21.51ZM981.43,429.76c.42.1,1.14.1,1.73.1,4.52.03,7.48-2.44,7.48-7.68,0-4.56-2.67-6.97-6.96-6.97-1.08,0-1.83.1-2.25.2v14.35Z"/>
              <path class="cls-113" d="M1004.21,413.16c0,1.37-1.01,2.48-2.66,2.48-1.56,0-2.57-1.11-2.57-2.48s1.04-2.47,2.64-2.47,2.57,1.07,2.6,2.47ZM999.1,433.5v-15.91h4.95v15.91h-4.95Z"/>
              <path class="cls-113" d="M1019.73,411.57v8.43h8.17v-8.43h4.94v21.94h-4.94v-9.18h-8.17v9.18h-4.95v-21.94h4.95Z"/>
              <path class="cls-113" d="M1050.26,429.66c0,1.5.07,2.96.26,3.84h-4.46l-.29-1.6h-.1c-1.04,1.27-2.67,1.96-4.56,1.96-3.22,0-5.14-2.35-5.14-4.88,0-4.13,3.71-6.09,9.34-6.09v-.2c0-.88-.46-2.08-2.9-2.08-1.63,0-3.36.55-4.39,1.2l-.91-3.19c1.11-.62,3.29-1.43,6.18-1.43,5.31,0,6.97,3.13,6.97,6.9v5.57ZM1045.48,425.98c-2.6,0-4.62.62-4.62,2.5,0,1.27.85,1.89,1.95,1.89,1.2,0,2.25-.81,2.57-1.82.06-.26.1-.56.1-.85v-1.72Z"/>
              <path class="cls-113" d="M1059.47,413.29v4.3h3.55v3.65h-3.55v5.76c0,1.92.49,2.8,1.95,2.8.69,0,1.01-.04,1.47-.13l.03,3.74c-.62.23-1.82.42-3.19.42-1.6,0-2.93-.55-3.74-1.37-.91-.95-1.37-2.48-1.37-4.72v-6.51h-2.11v-3.65h2.11v-2.96l4.85-1.34Z"/>
              <path class="cls-113" d="M1070.99,413.16c0,1.37-1.01,2.48-2.67,2.48-1.56,0-2.57-1.11-2.57-2.48s1.04-2.47,2.64-2.47,2.57,1.07,2.6,2.47ZM1065.88,433.5v-15.91h4.95v15.91h-4.95Z"/>
            </g>
          </g>
        </g>
      </g>
      <g class="cls-123">
        <image width="1200" height="1200" transform="translate(439.49 160.4) scale(.85)" xlink:href="TEXT.png"/>
      </g>
    </g>
  </g>
</svg>