<svg id="svg" version="1.1" xmlns="http://www.w3.org/2000/svg" xmlns:xlink="http://www.w3.org/1999/xlink" width="400" height="139.34815454349234" viewBox="0, 0, 400,139.34815454349234"><g id="svgg"><path id="path0" d="M151.460 0.237 C 148.289 1.369,146.783 5.209,148.275 8.358 C 150.382 12.805,157.025 12.587,158.829 8.010 C 159.380 6.614,159.292 6.320,158.553 7.080 C 157.679 7.981,156.654 8.396,155.333 8.387 C 151.253 8.356,149.315 3.467,152.252 0.614 C 152.973 -0.086,152.713 -0.210,151.460 0.237 M168.750 0.506 C 165.189 0.675,159.902 1.105,159.678 1.243 C 159.590 1.297,159.741 1.700,160.015 2.140 C 160.723 3.279,161.122 5.311,160.901 6.650 C 160.808 7.209,160.778 7.667,160.833 7.667 C 160.889 7.667,162.543 7.520,164.509 7.340 C 190.110 5.000,206.749 8.295,211.567 16.658 C 214.178 21.189,212.764 28.940,207.947 36.500 C 207.568 37.096,207.214 37.621,207.160 37.667 C 207.106 37.712,206.587 38.425,206.006 39.250 C 205.424 40.075,204.660 41.079,204.308 41.482 C 203.310 42.621,203.554 42.683,204.683 41.578 C 207.634 38.692,211.680 32.945,213.129 29.583 C 217.720 18.934,216.307 11.752,208.641 6.771 C 201.061 1.845,187.009 -0.362,168.750 0.506 M144.667 3.412 C 144.162 3.528,142.475 3.902,140.917 4.242 C 132.864 6.002,117.504 10.624,116.532 11.580 C 116.470 11.640,117.755 16.611,118.097 17.637 C 118.230 18.034,118.290 18.435,118.231 18.530 C 118.096 18.750,118.624 18.587,119.823 18.041 C 121.084 17.467,126.163 15.612,128.667 14.811 C 129.813 14.445,131.688 13.843,132.833 13.475 C 134.975 12.786,142.186 10.914,145.000 10.316 C 147.398 9.806,147.216 9.917,146.847 9.193 C 146.030 7.591,145.810 5.499,146.262 3.625 C 146.391 3.088,146.191 3.061,144.667 3.412 M27.500 66.449 C 5.354 70.370,-3.301 97.710,12.576 113.591 C 28.886 129.905,57.186 120.262,59.923 97.458 C 60.070 96.236,60.062 96.239,58.873 97.875 C 51.753 107.670,37.712 109.739,27.985 102.427 C 18.298 95.146,16.293 81.271,23.531 71.607 C 25.205 69.371,28.342 66.570,29.461 66.311 L 29.917 66.206 29.417 66.202 C 29.142 66.200,28.279 66.311,27.500 66.449 M178.520 83.269 C 168.331 84.652,163.106 90.858,164.172 100.311 C 165.192 109.356,171.130 113.686,182.886 113.957 C 195.197 114.241,202.217 110.175,203.507 102.015 C 203.602 101.411,203.759 100.456,203.856 99.892 C 204.251 97.588,203.418 92.737,202.322 90.956 C 202.053 90.519,201.833 90.122,201.833 90.074 C 201.833 88.945,197.606 85.590,194.900 84.571 C 191.101 83.141,183.761 82.558,178.520 83.269 M263.917 83.251 C 252.610 84.848,247.538 92.034,250.014 102.952 C 251.672 110.265,258.236 114.008,269.384 113.997 C 279.454 113.987,285.977 110.798,288.165 104.814 C 288.379 104.229,288.610 103.675,288.679 103.583 C 288.747 103.492,288.854 103.117,288.916 102.750 C 288.978 102.383,289.065 101.952,289.109 101.792 C 289.184 101.517,288.787 101.500,282.441 101.500 L 275.693 101.500 275.576 102.042 C 274.750 105.860,269.584 107.595,265.365 105.470 C 260.495 103.017,260.604 93.662,265.530 91.332 C 269.947 89.243,274.877 91.125,275.687 95.208 L 275.877 96.167 282.462 96.167 L 289.047 96.167 288.942 95.155 C 288.297 88.984,283.744 84.879,275.917 83.410 C 273.833 83.019,266.270 82.919,263.917 83.251 M340.000 83.184 C 331.324 84.159,327.208 88.335,328.880 94.464 C 330.149 99.116,332.887 100.455,343.957 101.834 C 350.753 102.681,352.000 103.123,352.000 104.689 C 352.000 107.254,343.597 107.378,342.526 104.828 L 342.250 104.170 335.292 104.168 L 328.333 104.167 328.336 104.542 C 328.366 108.397,331.441 111.648,336.415 113.081 C 343.036 114.988,355.276 114.307,360.470 111.741 C 364.729 109.637,366.941 104.285,365.097 100.542 C 364.860 100.062,364.667 99.601,364.667 99.519 C 364.667 98.208,360.596 95.871,357.249 95.260 C 356.425 95.109,355.375 94.916,354.917 94.831 C 354.458 94.746,352.358 94.444,350.250 94.160 C 342.981 93.182,341.553 92.831,341.137 91.917 C 339.800 88.983,349.131 88.615,350.638 91.542 L 351.045 92.333 357.689 92.333 C 365.302 92.333,364.548 92.547,364.022 90.540 C 362.897 86.256,358.875 83.916,351.357 83.171 C 349.341 82.971,341.815 82.980,340.000 83.184 M124.890 85.282 C 124.950 86.181,124.999 92.861,124.999 100.127 L 125.000 113.338 130.708 113.294 L 136.417 113.250 136.417 108.083 L 136.417 102.917 143.667 102.823 C 150.824 102.730,150.937 102.723,152.540 102.291 C 162.411 99.630,163.061 87.614,153.500 84.532 C 151.205 83.792,151.094 83.786,137.683 83.716 L 124.782 83.648 124.890 85.282 M208.500 98.516 L 208.500 113.365 219.708 113.287 C 234.707 113.183,237.293 112.743,241.468 109.585 C 245.425 106.594,247.291 100.520,246.069 94.617 C 245.858 93.597,245.663 93.063,244.896 91.408 C 243.417 88.217,239.445 85.390,235.083 84.424 C 231.969 83.734,230.557 83.667,219.257 83.667 L 208.500 83.667 208.500 98.516 M301.086 84.792 C 300.839 85.410,300.576 85.992,300.503 86.083 C 300.430 86.175,299.951 87.275,299.440 88.527 C 298.928 89.780,298.363 91.093,298.183 91.444 C 298.004 91.796,297.466 93.021,296.989 94.167 C 296.511 95.313,295.916 96.700,295.665 97.250 C 295.414 97.800,294.930 98.925,294.588 99.750 C 294.247 100.575,293.717 101.785,293.411 102.439 C 293.105 103.093,292.504 104.481,292.075 105.522 C 291.646 106.564,291.155 107.693,290.983 108.031 C 290.678 108.632,288.833 113.122,288.833 113.265 C 288.833 113.305,291.588 113.318,294.954 113.294 L 301.074 113.250 301.602 111.833 L 302.131 110.417 308.427 110.417 L 314.722 110.417 315.208 111.875 L 315.694 113.333 321.847 113.333 C 327.596 113.333,328.000 113.314,328.000 113.042 C 328.000 112.716,327.476 111.267,326.991 110.250 C 326.816 109.883,326.229 108.458,325.688 107.083 C 325.146 105.708,324.125 103.158,323.418 101.417 C 322.711 99.675,321.683 97.125,321.133 95.750 C 320.583 94.375,319.980 92.912,319.793 92.500 C 319.606 92.087,319.018 90.625,318.486 89.250 C 317.954 87.875,317.375 86.450,317.200 86.083 C 317.025 85.717,316.744 85.023,316.575 84.542 L 316.267 83.667 308.901 83.667 L 301.535 83.667 301.086 84.792 M367.000 87.414 L 367.000 91.162 372.361 91.206 L 377.722 91.250 377.736 102.250 L 377.750 113.250 383.500 113.250 L 389.250 113.250 389.250 102.208 L 389.250 91.167 394.625 91.167 L 400.000 91.167 400.000 87.417 L 400.000 83.667 383.500 83.667 L 367.000 83.667 367.000 87.414 M146.170 90.621 C 148.215 91.629,148.159 94.785,146.077 95.833 C 145.267 96.241,145.158 96.251,140.875 96.304 L 136.500 96.358 136.500 94.788 C 136.500 93.924,136.451 92.527,136.391 91.682 L 136.282 90.147 140.849 90.198 C 145.181 90.247,145.456 90.269,146.170 90.621 M186.022 90.740 C 193.340 92.291,193.573 104.366,186.319 106.076 C 181.648 107.178,177.704 105.133,176.848 101.167 C 176.739 100.662,176.570 99.935,176.472 99.550 C 176.243 98.647,176.537 96.019,177.004 94.795 C 178.264 91.485,181.876 89.861,186.022 90.740 M228.570 91.247 C 232.837 92.007,234.705 95.142,233.839 100.092 C 233.134 104.121,231.223 105.181,224.458 105.294 L 220.167 105.366 220.166 99.808 C 220.165 96.751,220.117 93.519,220.057 92.625 L 219.950 91.000 223.600 91.006 C 225.983 91.010,227.708 91.093,228.570 91.247 M60.045 92.667 C 60.045 93.079,60.078 93.248,60.118 93.042 C 60.157 92.835,60.157 92.498,60.118 92.292 C 60.078 92.085,60.045 92.254,60.045 92.667 M310.417 97.917 C 311.317 100.575,312.080 102.825,312.112 102.917 C 312.150 103.024,310.875 103.083,308.500 103.083 C 305.305 103.083,304.842 103.051,304.928 102.833 C 304.983 102.696,305.822 100.388,306.793 97.704 C 307.764 95.021,308.609 92.883,308.670 92.954 C 308.731 93.025,309.517 95.258,310.417 97.917 M60.045 95.167 C 60.045 95.579,60.078 95.748,60.118 95.542 C 60.157 95.335,60.157 94.998,60.118 94.792 C 60.078 94.585,60.045 94.754,60.045 95.167 " stroke="none" fill="#ec5223" fill-rule="evenodd"></path><path id="path1" d="M152.252 0.614 C 148.663 4.099,152.634 10.090,157.182 8.052 C 159.171 7.160,159.687 5.849,158.913 3.655 C 157.874 0.711,153.982 -1.066,152.252 0.614 M156.000 3.167 C 156.650 3.817,156.270 4.833,155.376 4.833 C 154.271 4.833,153.951 3.580,154.917 3.032 C 155.395 2.761,155.623 2.789,156.000 3.167 M30.183 66.194 C 29.577 66.280,28.894 66.501,28.600 66.706 C 16.327 75.242,16.013 93.428,27.985 102.427 C 37.736 109.757,51.674 107.689,58.903 97.839 C 61.699 94.031,59.585 84.006,54.551 77.199 C 49.054 69.766,38.509 65.003,30.183 66.194 M43.269 80.360 C 47.009 82.118,46.937 87.545,43.152 89.243 C 40.748 90.322,38.030 89.341,36.843 86.967 C 34.775 82.828,39.088 78.394,43.269 80.360 " stroke="none" fill="#fbd210" fill-rule="evenodd"></path><path id="path2" d="M96.000 20.782 C 93.448 22.147,88.455 25.007,86.500 26.225 C 83.593 28.036,81.103 29.674,80.917 29.897 C 80.717 30.137,79.500 31.066,79.500 30.978 C 79.501 30.944,79.688 30.218,79.917 29.363 C 80.445 27.394,80.492 27.616,79.361 26.784 C 76.826 24.918,71.058 23.560,66.261 23.701 L 64.605 23.750 64.052 25.750 C 63.748 26.850,62.931 29.813,62.238 32.333 C 61.544 34.854,60.448 38.829,59.803 41.167 C 59.157 43.504,58.157 47.142,57.580 49.250 C 57.003 51.358,56.262 54.008,55.932 55.138 C 55.603 56.269,55.333 57.300,55.333 57.430 C 55.333 57.631,56.587 57.667,63.724 57.667 L 72.114 57.667 72.556 56.042 C 72.799 55.148,73.329 53.198,73.733 51.709 C 74.690 48.181,75.659 46.552,78.640 43.460 C 81.984 39.991,91.186 33.030,97.092 29.500 C 99.796 27.884,99.994 27.743,99.896 27.500 C 99.841 27.363,99.477 26.050,99.087 24.583 C 98.141 21.020,97.807 19.998,97.595 20.012 C 97.497 20.019,96.779 20.366,96.000 20.782 M111.921 24.335 C 110.824 24.692,109.774 25.061,109.588 25.156 C 109.402 25.251,108.365 25.667,107.282 26.082 C 103.298 27.607,97.903 30.497,95.577 32.353 C 94.480 33.229,94.661 32.718,92.484 41.042 L 92.320 41.667 90.290 41.667 L 88.259 41.667 85.885 44.125 L 83.510 46.583 87.172 46.628 C 89.186 46.653,90.833 46.737,90.833 46.814 C 90.833 46.978,90.004 50.050,89.502 51.750 C 86.775 60.966,86.593 64.379,88.611 68.494 C 92.338 76.099,107.781 77.706,117.000 71.448 C 117.412 71.168,117.787 70.896,117.833 70.843 C 117.879 70.791,118.329 70.434,118.833 70.049 C 120.371 68.877,121.659 67.592,123.219 65.677 C 124.284 64.368,125.822 61.822,126.573 60.124 L 126.996 59.167 123.694 59.167 L 120.392 59.167 119.576 60.375 C 117.813 62.983,115.023 65.710,112.839 66.958 C 107.211 70.174,102.611 67.703,103.989 62.204 C 104.253 61.150,105.498 56.526,106.108 54.333 C 106.426 53.188,107.031 50.994,107.450 49.458 L 108.214 46.667 113.278 46.667 L 118.342 46.667 120.941 44.208 L 123.540 41.750 116.604 41.707 C 112.788 41.683,109.667 41.620,109.667 41.566 C 109.667 41.457,110.546 38.131,111.006 36.500 C 111.175 35.904,111.882 33.354,112.579 30.833 C 113.276 28.313,113.992 25.725,114.170 25.083 C 114.348 24.442,114.496 23.860,114.497 23.792 C 114.502 23.561,113.929 23.682,111.921 24.335 M130.206 24.183 C 130.113 24.495,129.877 25.350,129.683 26.083 C 129.057 28.441,128.197 31.560,127.935 32.417 C 127.795 32.875,127.230 34.900,126.680 36.917 C 126.130 38.933,125.148 42.496,124.498 44.833 C 123.215 49.445,121.000 57.543,121.000 57.621 C 121.000 57.648,124.798 57.650,129.439 57.627 L 137.878 57.583 138.915 53.750 C 139.485 51.642,140.143 49.279,140.378 48.500 C 140.612 47.721,141.184 45.696,141.648 44.000 C 143.754 36.312,143.820 36.104,144.297 35.701 C 147.731 32.798,150.662 31.717,152.401 32.711 C 154.345 33.823,154.315 35.447,152.224 42.333 C 151.987 43.112,151.321 45.475,150.743 47.583 C 150.165 49.692,149.498 52.092,149.259 52.917 C 148.755 54.663,148.000 57.461,148.000 57.583 C 148.000 57.629,151.787 57.667,156.417 57.667 C 161.046 57.667,164.833 57.648,164.833 57.625 C 164.834 57.570,166.320 52.137,167.056 49.500 C 167.376 48.354,167.902 46.442,168.225 45.250 C 170.676 36.220,170.604 36.445,171.187 36.000 C 171.486 35.771,172.056 35.305,172.451 34.965 C 174.842 32.911,178.214 31.832,179.502 32.708 C 181.298 33.931,181.184 35.514,178.715 43.667 C 178.479 44.446,177.780 46.921,177.161 49.167 C 176.543 51.413,175.766 54.208,175.435 55.380 C 175.104 56.551,174.833 57.546,174.833 57.590 C 174.833 57.634,178.595 57.650,183.193 57.627 L 191.553 57.583 192.197 55.250 C 192.551 53.967,193.359 51.042,193.992 48.750 C 194.626 46.458,195.527 43.196,195.996 41.500 C 198.270 33.268,198.359 31.495,196.668 28.058 C 193.821 22.267,183.181 22.285,172.808 28.099 C 170.885 29.177,171.087 29.158,170.650 28.292 C 168.579 24.181,163.161 22.772,155.464 24.344 C 152.734 24.901,147.056 26.921,146.357 27.583 C 146.171 27.760,146.020 27.687,145.500 27.167 C 145.153 26.820,144.280 26.257,143.560 25.917 C 142.839 25.577,142.125 25.234,141.972 25.156 C 140.790 24.552,136.489 23.867,132.980 23.723 L 130.376 23.616 130.206 24.183 M37.750 55.673 C 19.838 56.862,4.782 69.863,0.893 87.498 C -0.350 93.140,-0.237 101.051,1.156 105.833 C 1.330 106.429,1.632 107.479,1.828 108.167 C 3.753 114.932,9.070 122.942,14.472 127.214 C 14.960 127.600,15.786 128.254,16.307 128.667 C 20.097 131.668,25.794 134.288,31.500 135.654 C 38.665 137.369,47.253 136.843,54.500 134.244 C 57.345 133.224,63.389 129.960,64.763 128.701 C 64.939 128.540,65.571 128.036,66.167 127.581 C 68.366 125.902,73.081 120.774,74.133 118.917 C 74.582 118.125,74.578 118.127,75.266 118.519 C 75.624 118.723,76.029 118.984,76.167 119.097 C 76.562 119.425,81.755 122.067,83.500 122.829 C 84.371 123.209,85.383 123.662,85.750 123.835 C 87.981 124.888,94.752 127.165,100.417 128.766 C 102.106 129.243,107.086 130.376,111.417 131.268 C 113.305 131.657,118.342 132.458,121.750 132.911 C 123.492 133.142,125.442 133.406,126.083 133.497 C 128.002 133.767,134.174 134.302,137.959 134.526 L 141.502 134.736 141.922 135.372 C 142.447 136.165,144.018 137.336,145.099 137.741 C 145.549 137.909,145.992 138.102,146.083 138.170 C 146.770 138.678,150.708 139.331,153.088 139.332 C 162.316 139.338,168.114 134.447,163.644 130.428 C 162.876 129.738,162.388 129.459,160.321 128.528 C 155.703 126.450,146.807 127.294,143.088 130.163 L 142.245 130.814 139.497 130.577 C 123.512 129.199,105.012 125.386,94.667 121.339 C 93.979 121.070,92.442 120.476,91.250 120.019 C 89.250 119.253,83.811 116.816,83.420 116.511 C 83.326 116.438,82.537 116.018,81.667 115.576 C 80.796 115.134,79.578 114.447,78.960 114.048 C 78.343 113.650,77.726 113.282,77.590 113.230 C 77.380 113.149,77.394 113.034,77.688 112.458 C 80.321 107.297,81.703 97.614,80.778 90.809 C 79.883 84.229,76.737 76.482,73.097 71.892 C 72.723 71.420,72.101 70.633,71.715 70.142 C 64.196 60.588,50.649 54.817,37.750 55.673 M35.250 66.170 C 54.428 68.310,65.814 88.805,57.425 106.083 C 46.501 128.582,13.516 126.348,5.746 102.583 C -0.524 83.410,15.253 63.939,35.250 66.170 M343.750 89.670 C 341.986 89.941,341.167 90.524,341.167 91.509 C 341.167 92.418,341.485 92.596,342.273 92.130 C 343.147 91.614,347.215 91.563,348.615 92.052 C 349.499 92.360,350.524 93.289,350.744 93.982 C 350.855 94.332,350.885 94.333,357.595 94.333 L 364.333 94.333 364.333 93.333 L 364.333 92.333 357.601 92.333 L 350.869 92.333 350.768 91.930 C 350.468 90.735,349.041 89.937,346.729 89.672 C 345.096 89.485,344.952 89.485,343.750 89.670 M136.500 91.140 L 136.500 92.138 140.792 92.197 C 145.611 92.264,146.308 92.422,147.110 93.629 L 147.472 94.174 147.576 93.698 C 147.844 92.481,147.170 91.137,146.028 90.609 C 145.305 90.275,144.940 90.246,140.875 90.196 L 136.500 90.142 136.500 91.140 M182.583 90.671 C 178.734 91.188,176.452 94.028,176.519 98.217 C 176.530 98.877,176.568 99.267,176.604 99.083 C 176.954 97.306,177.084 96.827,177.373 96.250 C 178.626 93.747,181.126 92.522,184.583 92.719 C 188.408 92.936,190.710 94.940,191.321 98.583 L 191.461 99.417 191.478 98.333 C 191.558 93.070,187.938 89.951,182.583 90.671 M267.956 90.667 C 264.122 91.158,261.789 94.058,261.855 98.250 L 261.871 99.250 262.026 98.439 C 262.724 94.787,265.414 92.667,269.348 92.667 C 272.812 92.667,275.292 94.621,275.629 97.616 L 275.710 98.333 282.355 98.333 L 289.000 98.333 289.000 97.771 C 289.000 97.461,288.953 96.975,288.896 96.689 L 288.792 96.170 282.276 96.127 L 275.759 96.083 275.632 95.333 C 275.192 92.750,273.375 91.079,270.565 90.673 C 269.305 90.490,269.332 90.491,267.956 90.667 M220.167 92.150 L 220.167 93.133 224.375 93.212 C 231.116 93.337,233.006 94.329,233.832 98.176 C 233.965 98.794,233.980 98.669,233.926 97.417 C 233.714 92.560,231.522 91.175,224.042 91.170 L 220.167 91.167 220.167 92.150 M367.000 92.333 L 367.000 93.333 372.333 93.333 L 377.667 93.333 377.667 92.333 L 377.667 91.333 372.333 91.333 L 367.000 91.333 367.000 92.333 M389.167 92.333 L 389.167 93.333 394.583 93.333 L 400.000 93.333 400.000 92.333 L 400.000 91.333 394.583 91.333 L 389.167 91.333 389.167 92.333 M306.782 97.901 C 304.748 103.507,304.886 103.000,305.388 103.000 C 305.733 103.000,305.845 102.794,306.411 101.125 C 306.761 100.094,307.374 98.408,307.773 97.379 C 308.173 96.349,308.502 95.412,308.505 95.295 C 308.514 94.906,308.809 95.578,309.406 97.350 C 309.727 98.303,310.291 99.946,310.660 101.000 C 311.029 102.054,311.331 102.935,311.332 102.958 C 311.336 103.083,312.000 102.976,312.000 102.851 C 312.000 102.650,308.883 93.559,308.705 93.241 C 308.608 93.068,308.013 94.511,306.782 97.901 M328.501 94.264 C 328.508 97.539,330.011 99.998,332.940 101.525 C 335.414 102.814,336.397 103.033,343.333 103.834 C 347.910 104.363,350.011 104.779,350.984 105.352 C 351.644 105.740,351.827 105.598,351.831 104.697 C 351.839 103.013,351.079 102.762,342.912 101.748 C 332.998 100.518,329.839 98.893,328.857 94.522 C 328.643 93.568,328.500 93.465,328.501 94.264 M159.940 95.625 C 159.542 98.061,157.381 100.479,154.536 101.674 C 152.024 102.728,150.774 102.870,143.292 102.955 L 136.500 103.031 136.500 104.016 L 136.500 105.000 142.713 105.000 C 150.293 105.000,151.246 104.902,154.333 103.804 C 157.834 102.559,159.881 99.865,160.233 96.042 C 160.336 94.919,160.109 94.596,159.940 95.625 M164.100 101.250 C 164.514 110.613,169.839 115.212,181.208 116.026 C 195.447 117.045,203.384 111.933,203.892 101.417 C 203.971 99.775,203.964 99.705,203.822 100.750 C 202.683 109.145,197.286 113.281,186.526 114.004 C 173.199 114.898,165.263 110.179,164.168 100.708 C 164.029 99.504,164.024 99.541,164.100 101.250 M246.268 100.792 C 245.606 106.519,242.181 110.397,236.167 112.233 C 232.984 113.204,232.897 113.210,220.208 113.286 L 208.500 113.355 208.500 114.354 L 208.500 115.353 220.375 115.286 C 233.252 115.212,233.393 115.203,236.417 114.236 C 242.793 112.197,245.974 108.164,246.430 101.538 C 246.556 99.706,246.450 99.218,246.268 100.792 M249.435 101.583 C 249.871 110.496,255.275 115.145,266.217 116.019 C 279.041 117.042,287.785 112.488,289.051 104.125 C 289.152 103.461,288.752 103.186,288.567 103.792 C 286.465 110.683,280.160 114.043,269.333 114.043 C 257.173 114.043,251.084 110.050,249.571 101.083 L 249.346 99.750 249.435 101.583 M328.271 106.232 C 328.533 111.633,331.879 114.546,339.333 115.863 C 341.381 116.224,351.205 116.161,353.750 115.770 C 361.647 114.557,365.370 111.644,365.602 106.500 L 365.674 104.917 365.342 106.135 C 363.804 111.779,358.317 114.051,346.167 114.073 C 334.586 114.095,329.328 111.500,328.320 105.266 C 328.226 104.682,328.210 104.984,328.271 106.232 M302.025 110.873 C 301.950 111.080,301.718 111.719,301.508 112.292 L 301.126 113.333 294.980 113.333 L 288.833 113.333 288.833 114.335 L 288.833 115.337 295.042 115.294 L 301.250 115.250 301.727 113.875 L 302.204 112.500 308.436 112.500 C 312.189 112.500,314.667 112.562,314.667 112.656 C 314.667 112.742,314.754 113.023,314.861 113.281 C 314.967 113.539,315.174 114.087,315.319 114.500 L 315.583 115.250 321.875 115.294 L 328.167 115.337 328.167 114.337 L 328.167 113.337 321.889 113.294 L 315.611 113.250 315.167 111.917 L 314.722 110.583 308.441 110.540 L 302.160 110.496 302.025 110.873 M124.833 114.333 L 124.833 115.333 130.667 115.333 L 136.500 115.333 136.500 114.333 L 136.500 113.333 130.667 113.333 L 124.833 113.333 124.833 114.333 M377.667 114.333 L 377.667 115.333 383.500 115.333 L 389.333 115.333 389.333 114.333 L 389.333 113.333 383.500 113.333 L 377.667 113.333 377.667 114.333 " stroke="none" fill="#343483" fill-rule="evenodd"></path><path id="path3" d="M154.917 3.032 C 153.951 3.580,154.271 4.833,155.376 4.833 C 156.270 4.833,156.650 3.817,156.000 3.167 C 155.623 2.789,155.395 2.761,154.917 3.032 M39.917 80.056 C 34.571 81.827,35.361 89.266,40.934 89.630 C 45.343 89.918,47.771 84.449,44.629 81.307 C 43.459 80.137,41.358 79.579,39.917 80.056 " stroke="none" fill="#fcfcb5" fill-rule="evenodd"></path><path id="path4" d="M115.379 11.931 C 114.809 12.139,113.721 12.572,112.962 12.893 C 112.204 13.213,110.833 13.782,109.917 14.155 C 109.000 14.529,107.875 15.018,107.417 15.240 C 106.958 15.463,105.758 16.017,104.750 16.471 C 101.655 17.864,98.333 19.528,98.333 19.685 C 98.333 19.766,98.277 19.824,98.208 19.814 C 97.732 19.738,97.689 19.854,97.936 20.542 C 98.076 20.931,98.557 22.631,99.005 24.318 C 99.702 26.941,100.167 28.239,100.167 27.561 C 100.167 27.466,100.260 27.389,100.375 27.388 C 100.490 27.388,101.596 26.822,102.833 26.130 C 106.602 24.024,114.408 20.217,117.122 19.162 C 118.327 18.693,118.407 18.567,118.092 17.621 C 117.963 17.233,117.545 15.717,117.163 14.250 C 116.782 12.783,116.458 11.576,116.443 11.568 C 116.429 11.560,115.950 11.723,115.379 11.931 M51.667 73.885 C 51.667 73.914,51.910 74.158,52.208 74.427 L 52.750 74.917 52.260 74.375 C 51.804 73.870,51.667 73.757,51.667 73.885 M124.913 99.583 C 124.913 107.192,124.933 110.329,124.958 106.554 C 124.983 102.780,124.983 96.555,124.958 92.721 C 124.933 88.887,124.913 91.975,124.913 99.583 M136.387 91.167 C 136.387 91.763,136.417 92.006,136.454 91.708 C 136.491 91.410,136.491 90.923,136.454 90.625 C 136.417 90.327,136.387 90.571,136.387 91.167 M220.032 92.125 L 220.064 93.250 220.123 92.212 L 220.182 91.173 223.883 91.125 L 227.583 91.077 223.792 91.038 L 220.000 91.000 220.032 92.125 M372.284 91.290 L 377.651 91.338 377.712 92.294 L 377.774 93.250 377.762 92.250 L 377.750 91.250 372.333 91.246 L 366.917 91.243 372.284 91.290 M391.886 91.291 C 393.427 91.319,395.902 91.319,397.386 91.291 C 398.869 91.264,397.608 91.241,394.583 91.241 C 391.558 91.241,390.344 91.264,391.886 91.291 M4.383 92.500 C 4.383 93.004,4.415 93.210,4.453 92.958 C 4.491 92.706,4.491 92.294,4.453 92.042 C 4.415 91.790,4.383 91.996,4.383 92.500 M178.406 92.542 L 177.917 93.083 178.458 92.594 C 178.963 92.138,179.077 92.000,178.948 92.000 C 178.919 92.000,178.675 92.244,178.406 92.542 M231.833 92.552 C 231.833 92.581,232.077 92.825,232.375 93.094 L 232.917 93.583 232.427 93.042 C 231.971 92.537,231.833 92.423,231.833 92.552 M4.383 95.333 C 4.383 95.837,4.415 96.044,4.453 95.792 C 4.491 95.540,4.491 95.127,4.453 94.875 C 4.415 94.623,4.383 94.829,4.383 95.333 M176.381 98.583 C 176.382 99.042,176.415 99.209,176.453 98.956 C 176.491 98.703,176.490 98.328,176.451 98.123 C 176.411 97.918,176.380 98.125,176.381 98.583 M157.740 99.542 L 157.250 100.083 157.792 99.594 C 158.090 99.325,158.333 99.081,158.333 99.052 C 158.333 98.923,158.196 99.037,157.740 99.542 M136.402 103.062 C 136.354 103.187,136.342 103.693,136.376 104.187 L 136.438 105.083 136.469 104.044 L 136.500 103.004 142.625 102.958 L 148.750 102.912 142.620 102.873 C 137.558 102.840,136.474 102.873,136.402 103.062 M304.833 103.023 C 304.833 103.102,305.021 103.167,305.250 103.167 C 305.479 103.167,305.667 103.138,305.667 103.103 C 305.667 103.068,305.479 103.003,305.250 102.959 C 305.021 102.915,304.833 102.944,304.833 103.023 M351.872 104.667 C 351.872 104.987,351.906 105.119,351.948 104.958 C 351.990 104.798,351.990 104.535,351.948 104.375 C 351.906 104.215,351.872 104.346,351.872 104.667 M285.328 109.125 L 284.417 110.083 285.375 109.172 C 286.265 108.326,286.410 108.167,286.286 108.167 C 286.260 108.167,285.829 108.598,285.328 109.125 M167.826 109.042 C 168.235 109.477,168.591 109.833,168.618 109.833 C 168.743 109.833,168.611 109.684,167.875 108.993 L 167.083 108.250 167.826 109.042 M252.833 108.719 C 252.833 108.748,253.077 108.991,253.375 109.260 L 253.917 109.750 253.427 109.208 C 252.971 108.703,252.833 108.590,252.833 108.719 M330.583 110.000 C 330.941 110.367,331.272 110.667,331.318 110.667 C 331.363 110.667,331.108 110.367,330.750 110.000 C 330.392 109.633,330.062 109.333,330.016 109.333 C 329.970 109.333,330.225 109.633,330.583 110.000 M302.109 110.458 C 302.067 110.527,304.905 110.583,308.417 110.583 C 311.928 110.583,314.767 110.527,314.724 110.458 C 314.682 110.390,311.843 110.333,308.417 110.333 C 304.990 110.333,302.152 110.390,302.109 110.458 M51.994 113.625 L 51.083 114.583 52.042 113.672 C 52.932 112.826,53.076 112.667,52.953 112.667 C 52.927 112.667,52.495 113.098,51.994 113.625 M228.961 113.287 C 229.261 113.325,229.711 113.324,229.961 113.286 C 230.212 113.248,229.967 113.217,229.417 113.218 C 228.867 113.219,228.662 113.250,228.961 113.287 M183.375 114.121 C 183.719 114.157,184.281 114.157,184.625 114.121 C 184.969 114.085,184.688 114.056,184.000 114.056 C 183.313 114.056,183.031 114.085,183.375 114.121 M268.708 114.121 C 269.052 114.157,269.615 114.157,269.958 114.121 C 270.302 114.085,270.021 114.056,269.333 114.056 C 268.646 114.056,268.365 114.085,268.708 114.121 " stroke="none" fill="#904054" fill-rule="evenodd"></path></g></svg>